<mxfile host="app.diagrams.net" agent="Mozilla/5.0 (Windows NT 10.0; Win64; x64) AppleWebKit/537.36 (KHTML, like Gecko) Chrome/128.0.0.0 Safari/537.36" version="24.7.14" pages="2">
  <diagram name="ERD Amazon" id="H48xrG2T90LR6pYWh2Qc">
    <mxGraphModel grid="1" page="1" gridSize="10" guides="1" tooltips="1" connect="1" arrows="1" fold="1" pageScale="1" pageWidth="850" pageHeight="1100" math="0" shadow="0">
      <root>
        <mxCell id="0" />
        <mxCell id="1" parent="0" />
        <mxCell id="lQpLeHkaoHbpF2qCEwn6-2" value="" style="endArrow=none;html=1;rounded=0;exitX=0.5;exitY=1;exitDx=0;exitDy=0;entryX=0.5;entryY=0;entryDx=0;entryDy=0;" parent="1" source="lQpLeHkaoHbpF2qCEwn6-1" target="YlhhfSobjes1HJvtvpS9-4" edge="1">
          <mxGeometry width="50" height="50" relative="1" as="geometry">
            <mxPoint x="-20" y="-290" as="sourcePoint" />
            <mxPoint x="30" y="-190" as="targetPoint" />
          </mxGeometry>
        </mxCell>
        <mxCell id="YlhhfSobjes1HJvtvpS9-1" value="Amazon" style="whiteSpace=wrap;html=1;align=center;" parent="1" vertex="1">
          <mxGeometry x="410" y="860" width="100" height="40" as="geometry" />
        </mxCell>
        <mxCell id="YlhhfSobjes1HJvtvpS9-2" value="Supplier" style="whiteSpace=wrap;html=1;align=center;" parent="1" vertex="1">
          <mxGeometry x="-20" y="45" width="100" height="40" as="geometry" />
        </mxCell>
        <mxCell id="YlhhfSobjes1HJvtvpS9-3" value="Customer" style="whiteSpace=wrap;html=1;align=center;" parent="1" vertex="1">
          <mxGeometry x="830.0699999999999" y="45" width="100" height="40" as="geometry" />
        </mxCell>
        <mxCell id="YlhhfSobjes1HJvtvpS9-4" value="Barang" style="shape=ext;margin=3;double=1;whiteSpace=wrap;html=1;align=center;" parent="1" vertex="1">
          <mxGeometry x="-20" y="-115" width="100" height="40" as="geometry" />
        </mxCell>
        <mxCell id="YlhhfSobjes1HJvtvpS9-5" value="Approving" style="shape=rhombus;perimeter=rhombusPerimeter;whiteSpace=wrap;html=1;align=center;" parent="1" vertex="1">
          <mxGeometry x="-30" y="850" width="120" height="60" as="geometry" />
        </mxCell>
        <mxCell id="YlhhfSobjes1HJvtvpS9-11" value="" style="shape=link;html=1;rounded=0;entryX=0.5;entryY=1;entryDx=0;entryDy=0;exitX=0.5;exitY=0;exitDx=0;exitDy=0;" parent="1" source="YlhhfSobjes1HJvtvpS9-5" target="YlhhfSobjes1HJvtvpS9-2" edge="1">
          <mxGeometry relative="1" as="geometry">
            <mxPoint x="330" y="220" as="sourcePoint" />
            <mxPoint x="490" y="220" as="targetPoint" />
          </mxGeometry>
        </mxCell>
        <mxCell id="YlhhfSobjes1HJvtvpS9-12" value="N" style="resizable=0;html=1;whiteSpace=wrap;align=right;verticalAlign=bottom;" parent="YlhhfSobjes1HJvtvpS9-11" connectable="0" vertex="1">
          <mxGeometry x="1" relative="1" as="geometry" />
        </mxCell>
        <mxCell id="YlhhfSobjes1HJvtvpS9-13" value="" style="endArrow=none;html=1;rounded=0;entryX=0;entryY=0.5;entryDx=0;entryDy=0;exitX=1;exitY=0.5;exitDx=0;exitDy=0;" parent="1" source="YlhhfSobjes1HJvtvpS9-5" target="YlhhfSobjes1HJvtvpS9-1" edge="1">
          <mxGeometry relative="1" as="geometry">
            <mxPoint x="210" y="760" as="sourcePoint" />
            <mxPoint x="600" y="630" as="targetPoint" />
          </mxGeometry>
        </mxCell>
        <mxCell id="YlhhfSobjes1HJvtvpS9-14" value="M" style="resizable=0;html=1;whiteSpace=wrap;align=left;verticalAlign=bottom;" parent="YlhhfSobjes1HJvtvpS9-13" connectable="0" vertex="1">
          <mxGeometry x="-1" relative="1" as="geometry" />
        </mxCell>
        <mxCell id="YlhhfSobjes1HJvtvpS9-15" value="N" style="resizable=0;html=1;whiteSpace=wrap;align=right;verticalAlign=bottom;" parent="YlhhfSobjes1HJvtvpS9-13" connectable="0" vertex="1">
          <mxGeometry x="1" relative="1" as="geometry" />
        </mxCell>
        <mxCell id="YlhhfSobjes1HJvtvpS9-16" value="Semua barang harus disetujui, tapi tidak semua barang disetujuui" style="shape=note;size=20;whiteSpace=wrap;html=1;" parent="1" vertex="1">
          <mxGeometry x="-180" y="610" width="140" height="90" as="geometry" />
        </mxCell>
        <mxCell id="YlhhfSobjes1HJvtvpS9-17" value="Banyak barang. Barang tidak wajib terdaftar saat pembuatan akun supplier" style="shape=note;size=20;whiteSpace=wrap;html=1;" parent="1" vertex="1">
          <mxGeometry x="-170" y="-192.5" width="140" height="95" as="geometry" />
        </mxCell>
        <mxCell id="YlhhfSobjes1HJvtvpS9-18" value="Banyak barang, banyak pegawai" style="shape=note;size=20;whiteSpace=wrap;html=1;" parent="1" vertex="1">
          <mxGeometry x="10" y="920" width="140" height="90" as="geometry" />
        </mxCell>
        <mxCell id="YlhhfSobjes1HJvtvpS9-19" value="Keranjang" style="shape=ext;margin=3;double=1;whiteSpace=wrap;html=1;align=center;" parent="1" vertex="1">
          <mxGeometry x="830.0699999999999" y="-115" width="100" height="40" as="geometry" />
        </mxCell>
        <mxCell id="YlhhfSobjes1HJvtvpS9-21" value="" style="endArrow=none;dashed=1;html=1;dashPattern=1 3;strokeWidth=2;rounded=0;entryX=0.5;entryY=1;entryDx=0;entryDy=0;exitX=0.5;exitY=0;exitDx=0;exitDy=0;" parent="1" source="YlhhfSobjes1HJvtvpS9-2" target="YlhhfSobjes1HJvtvpS9-4" edge="1">
          <mxGeometry width="50" height="50" relative="1" as="geometry">
            <mxPoint x="380" y="135" as="sourcePoint" />
            <mxPoint x="430" y="85" as="targetPoint" />
          </mxGeometry>
        </mxCell>
        <mxCell id="YlhhfSobjes1HJvtvpS9-22" value="" style="endArrow=none;dashed=1;html=1;dashPattern=1 3;strokeWidth=2;rounded=0;exitX=0.5;exitY=0;exitDx=0;exitDy=0;entryX=0.5;entryY=1;entryDx=0;entryDy=0;" parent="1" source="YlhhfSobjes1HJvtvpS9-3" target="YlhhfSobjes1HJvtvpS9-19" edge="1">
          <mxGeometry width="50" height="50" relative="1" as="geometry">
            <mxPoint x="280.07" y="55" as="sourcePoint" />
            <mxPoint x="530.0699999999999" y="35" as="targetPoint" />
          </mxGeometry>
        </mxCell>
        <mxCell id="YlhhfSobjes1HJvtvpS9-23" value="customer dapat membeli banyak barang. Keranjang dibuat saat customer membuat pesanan" style="shape=note;size=20;whiteSpace=wrap;html=1;" parent="1" vertex="1">
          <mxGeometry x="950.0699999999999" y="-192.5" width="140" height="90" as="geometry" />
        </mxCell>
        <mxCell id="YlhhfSobjes1HJvtvpS9-24" value="Requesting" style="shape=rhombus;perimeter=rhombusPerimeter;whiteSpace=wrap;html=1;align=center;" parent="1" vertex="1">
          <mxGeometry x="400" y="35" width="120" height="60" as="geometry" />
        </mxCell>
        <mxCell id="YlhhfSobjes1HJvtvpS9-25" value="" style="endArrow=none;html=1;rounded=0;dashed=1;dashPattern=1 2;exitX=1;exitY=0.5;exitDx=0;exitDy=0;entryX=0;entryY=0.5;entryDx=0;entryDy=0;" parent="1" source="YlhhfSobjes1HJvtvpS9-2" target="YlhhfSobjes1HJvtvpS9-24" edge="1">
          <mxGeometry relative="1" as="geometry">
            <mxPoint x="440" y="105" as="sourcePoint" />
            <mxPoint x="600" y="105" as="targetPoint" />
          </mxGeometry>
        </mxCell>
        <mxCell id="YlhhfSobjes1HJvtvpS9-26" value="M" style="resizable=0;html=1;whiteSpace=wrap;align=left;verticalAlign=bottom;" parent="YlhhfSobjes1HJvtvpS9-25" connectable="0" vertex="1">
          <mxGeometry x="-1" relative="1" as="geometry" />
        </mxCell>
        <mxCell id="YlhhfSobjes1HJvtvpS9-27" value="N" style="resizable=0;html=1;whiteSpace=wrap;align=right;verticalAlign=bottom;" parent="YlhhfSobjes1HJvtvpS9-25" connectable="0" vertex="1">
          <mxGeometry x="1" relative="1" as="geometry" />
        </mxCell>
        <mxCell id="YlhhfSobjes1HJvtvpS9-28" value="" style="endArrow=none;html=1;rounded=0;dashed=1;dashPattern=1 2;exitX=0;exitY=0.5;exitDx=0;exitDy=0;entryX=1;entryY=0.5;entryDx=0;entryDy=0;" parent="1" source="YlhhfSobjes1HJvtvpS9-19" target="YlhhfSobjes1HJvtvpS9-24" edge="1">
          <mxGeometry relative="1" as="geometry">
            <mxPoint x="280.07" y="75" as="sourcePoint" />
            <mxPoint x="600.0699999999999" y="30" as="targetPoint" />
          </mxGeometry>
        </mxCell>
        <mxCell id="YlhhfSobjes1HJvtvpS9-29" value="M" style="resizable=0;html=1;whiteSpace=wrap;align=left;verticalAlign=bottom;" parent="YlhhfSobjes1HJvtvpS9-28" connectable="0" vertex="1">
          <mxGeometry x="-1" relative="1" as="geometry" />
        </mxCell>
        <mxCell id="YlhhfSobjes1HJvtvpS9-30" value="N" style="resizable=0;html=1;whiteSpace=wrap;align=right;verticalAlign=bottom;" parent="YlhhfSobjes1HJvtvpS9-28" connectable="0" vertex="1">
          <mxGeometry x="1" relative="1" as="geometry" />
        </mxCell>
        <mxCell id="YlhhfSobjes1HJvtvpS9-31" value="Tidak semua barang yang direquest tersedia" style="shape=note;size=20;whiteSpace=wrap;html=1;" parent="1" vertex="1">
          <mxGeometry x="180" y="-50" width="140" height="100" as="geometry" />
        </mxCell>
        <mxCell id="YlhhfSobjes1HJvtvpS9-32" value="Semua pesanan harus membuat request. Tidak semua barang dalam keranjang akan direquest" style="shape=note;size=20;whiteSpace=wrap;html=1;" parent="1" vertex="1">
          <mxGeometry x="640.0699999999999" y="-195" width="140" height="100" as="geometry" />
        </mxCell>
        <mxCell id="YlhhfSobjes1HJvtvpS9-33" value="Managing Invoices" style="shape=rhombus;perimeter=rhombusPerimeter;whiteSpace=wrap;html=1;align=center;" parent="1" vertex="1">
          <mxGeometry x="60" y="600" width="120" height="60" as="geometry" />
        </mxCell>
        <mxCell id="YlhhfSobjes1HJvtvpS9-34" value="" style="shape=link;html=1;rounded=0;exitX=1;exitY=0.5;exitDx=0;exitDy=0;entryX=0.5;entryY=0;entryDx=0;entryDy=0;" parent="1" source="YlhhfSobjes1HJvtvpS9-2" target="YlhhfSobjes1HJvtvpS9-33" edge="1">
          <mxGeometry relative="1" as="geometry">
            <mxPoint x="280" y="260" as="sourcePoint" />
            <mxPoint x="440" y="260" as="targetPoint" />
          </mxGeometry>
        </mxCell>
        <mxCell id="YlhhfSobjes1HJvtvpS9-35" value="M" style="resizable=0;html=1;whiteSpace=wrap;align=left;verticalAlign=bottom;" parent="YlhhfSobjes1HJvtvpS9-34" connectable="0" vertex="1">
          <mxGeometry x="-1" relative="1" as="geometry" />
        </mxCell>
        <mxCell id="YlhhfSobjes1HJvtvpS9-36" value="N" style="resizable=0;html=1;whiteSpace=wrap;align=right;verticalAlign=bottom;" parent="YlhhfSobjes1HJvtvpS9-34" connectable="0" vertex="1">
          <mxGeometry x="1" relative="1" as="geometry" />
        </mxCell>
        <mxCell id="YlhhfSobjes1HJvtvpS9-37" value="" style="shape=link;html=1;rounded=0;exitX=0;exitY=0;exitDx=0;exitDy=0;entryX=1;entryY=1;entryDx=0;entryDy=0;" parent="1" source="YlhhfSobjes1HJvtvpS9-1" target="YlhhfSobjes1HJvtvpS9-33" edge="1">
          <mxGeometry relative="1" as="geometry">
            <mxPoint x="200" y="600" as="sourcePoint" />
            <mxPoint x="283" y="649" as="targetPoint" />
          </mxGeometry>
        </mxCell>
        <mxCell id="YlhhfSobjes1HJvtvpS9-38" value="M" style="resizable=0;html=1;whiteSpace=wrap;align=left;verticalAlign=bottom;" parent="YlhhfSobjes1HJvtvpS9-37" connectable="0" vertex="1">
          <mxGeometry x="-1" relative="1" as="geometry" />
        </mxCell>
        <mxCell id="YlhhfSobjes1HJvtvpS9-39" value="N" style="resizable=0;html=1;whiteSpace=wrap;align=right;verticalAlign=bottom;" parent="YlhhfSobjes1HJvtvpS9-37" connectable="0" vertex="1">
          <mxGeometry x="1" relative="1" as="geometry" />
        </mxCell>
        <mxCell id="YlhhfSobjes1HJvtvpS9-40" value="Supplier wajib membuat invoice semua pesanan. Dan mengirimkannya ke Amazon" style="shape=note;size=20;whiteSpace=wrap;html=1;" parent="1" vertex="1">
          <mxGeometry x="50" y="710" width="140" height="100" as="geometry" />
        </mxCell>
        <mxCell id="YlhhfSobjes1HJvtvpS9-41" value="Bank" style="whiteSpace=wrap;html=1;align=center;" parent="1" vertex="1">
          <mxGeometry x="410" y="120" width="100" height="40" as="geometry" />
        </mxCell>
        <mxCell id="YlhhfSobjes1HJvtvpS9-43" value="" style="endArrow=none;html=1;rounded=0;dashed=1;dashPattern=1 2;exitX=1;exitY=0.5;exitDx=0;exitDy=0;entryX=0;entryY=0.5;entryDx=0;entryDy=0;" parent="1" source="YlhhfSobjes1HJvtvpS9-33" target="YlhhfSobjes1HJvtvpS9-42" edge="1">
          <mxGeometry relative="1" as="geometry">
            <mxPoint x="480" y="630" as="sourcePoint" />
            <mxPoint x="650" y="480" as="targetPoint" />
          </mxGeometry>
        </mxCell>
        <mxCell id="YlhhfSobjes1HJvtvpS9-44" value="N" style="resizable=0;html=1;whiteSpace=wrap;align=right;verticalAlign=bottom;" parent="YlhhfSobjes1HJvtvpS9-43" connectable="0" vertex="1">
          <mxGeometry x="1" relative="1" as="geometry" />
        </mxCell>
        <mxCell id="YlhhfSobjes1HJvtvpS9-46" value="Invoice dibuat" style="shape=note;size=20;whiteSpace=wrap;html=1;" parent="1" vertex="1">
          <mxGeometry x="416.25" y="350" width="87.5" height="50" as="geometry" />
        </mxCell>
        <mxCell id="YlhhfSobjes1HJvtvpS9-48" value="" style="shape=link;html=1;rounded=0;exitX=0;exitY=0.5;exitDx=0;exitDy=0;entryX=1;entryY=0;entryDx=0;entryDy=0;" parent="1" source="YlhhfSobjes1HJvtvpS9-3" target="YlhhfSobjes1HJvtvpS9-47" edge="1">
          <mxGeometry relative="1" as="geometry">
            <mxPoint x="460.07" y="330" as="sourcePoint" />
            <mxPoint x="620.0699999999999" y="330" as="targetPoint" />
          </mxGeometry>
        </mxCell>
        <mxCell id="YlhhfSobjes1HJvtvpS9-49" value="M" style="resizable=0;html=1;whiteSpace=wrap;align=left;verticalAlign=bottom;" parent="YlhhfSobjes1HJvtvpS9-48" connectable="0" vertex="1">
          <mxGeometry x="-1" relative="1" as="geometry" />
        </mxCell>
        <mxCell id="YlhhfSobjes1HJvtvpS9-50" value="N" style="resizable=0;html=1;whiteSpace=wrap;align=right;verticalAlign=bottom;" parent="YlhhfSobjes1HJvtvpS9-48" connectable="0" vertex="1">
          <mxGeometry x="1" relative="1" as="geometry" />
        </mxCell>
        <mxCell id="YlhhfSobjes1HJvtvpS9-59" value="" style="endArrow=none;html=1;rounded=0;entryX=0;entryY=1;entryDx=0;entryDy=0;exitX=1;exitY=0.5;exitDx=0;exitDy=0;" parent="1" source="YlhhfSobjes1HJvtvpS9-41" target="YlhhfSobjes1HJvtvpS9-47" edge="1">
          <mxGeometry relative="1" as="geometry">
            <mxPoint x="460" y="250" as="sourcePoint" />
            <mxPoint x="620" y="250" as="targetPoint" />
          </mxGeometry>
        </mxCell>
        <mxCell id="YlhhfSobjes1HJvtvpS9-60" value="1" style="resizable=0;html=1;whiteSpace=wrap;align=right;verticalAlign=bottom;" parent="YlhhfSobjes1HJvtvpS9-59" connectable="0" vertex="1">
          <mxGeometry x="1" relative="1" as="geometry" />
        </mxCell>
        <mxCell id="YlhhfSobjes1HJvtvpS9-62" value="Transfering" style="shape=rhombus;perimeter=rhombusPerimeter;whiteSpace=wrap;html=1;align=center;" parent="1" vertex="1">
          <mxGeometry x="400" y="270" width="120" height="60" as="geometry" />
        </mxCell>
        <mxCell id="YlhhfSobjes1HJvtvpS9-66" value="" style="endArrow=none;html=1;rounded=0;entryX=0.75;entryY=1;entryDx=0;entryDy=0;exitX=1;exitY=0.5;exitDx=0;exitDy=0;" parent="1" source="YlhhfSobjes1HJvtvpS9-62" target="YlhhfSobjes1HJvtvpS9-41" edge="1">
          <mxGeometry relative="1" as="geometry">
            <mxPoint x="460" y="250" as="sourcePoint" />
            <mxPoint x="620" y="340" as="targetPoint" />
          </mxGeometry>
        </mxCell>
        <mxCell id="YlhhfSobjes1HJvtvpS9-67" value="1" style="resizable=0;html=1;whiteSpace=wrap;align=right;verticalAlign=bottom;" parent="YlhhfSobjes1HJvtvpS9-66" connectable="0" vertex="1">
          <mxGeometry x="1" relative="1" as="geometry" />
        </mxCell>
        <mxCell id="YlhhfSobjes1HJvtvpS9-68" value="" style="endArrow=none;html=1;rounded=0;entryX=1;entryY=0.5;entryDx=0;entryDy=0;exitX=0.75;exitY=0;exitDx=0;exitDy=0;" parent="1" source="YlhhfSobjes1HJvtvpS9-1" target="YlhhfSobjes1HJvtvpS9-62" edge="1">
          <mxGeometry relative="1" as="geometry">
            <mxPoint x="470" y="280" as="sourcePoint" />
            <mxPoint x="470" y="170" as="targetPoint" />
          </mxGeometry>
        </mxCell>
        <mxCell id="YlhhfSobjes1HJvtvpS9-69" value="1" style="resizable=0;html=1;whiteSpace=wrap;align=right;verticalAlign=bottom;" parent="YlhhfSobjes1HJvtvpS9-68" connectable="0" vertex="1">
          <mxGeometry x="1" relative="1" as="geometry">
            <mxPoint x="80" as="offset" />
          </mxGeometry>
        </mxCell>
        <mxCell id="YlhhfSobjes1HJvtvpS9-72" value="Transfering" style="shape=rhombus;perimeter=rhombusPerimeter;whiteSpace=wrap;html=1;align=center;" parent="1" vertex="1">
          <mxGeometry x="150" y="70" width="120" height="60" as="geometry" />
        </mxCell>
        <mxCell id="YlhhfSobjes1HJvtvpS9-73" value="" style="endArrow=none;html=1;rounded=0;entryX=0.25;entryY=1;entryDx=0;entryDy=0;exitX=0;exitY=0.5;exitDx=0;exitDy=0;" parent="1" source="YlhhfSobjes1HJvtvpS9-62" target="YlhhfSobjes1HJvtvpS9-41" edge="1">
          <mxGeometry relative="1" as="geometry">
            <mxPoint x="530" y="310" as="sourcePoint" />
            <mxPoint x="495" y="170" as="targetPoint" />
          </mxGeometry>
        </mxCell>
        <mxCell id="YlhhfSobjes1HJvtvpS9-74" value="1" style="resizable=0;html=1;whiteSpace=wrap;align=right;verticalAlign=bottom;" parent="YlhhfSobjes1HJvtvpS9-73" connectable="0" vertex="1">
          <mxGeometry x="1" relative="1" as="geometry" />
        </mxCell>
        <mxCell id="YlhhfSobjes1HJvtvpS9-75" value="" style="endArrow=none;html=1;rounded=0;entryX=0;entryY=0.5;entryDx=0;entryDy=0;exitX=0.25;exitY=0;exitDx=0;exitDy=0;" parent="1" source="YlhhfSobjes1HJvtvpS9-1" target="YlhhfSobjes1HJvtvpS9-62" edge="1">
          <mxGeometry relative="1" as="geometry">
            <mxPoint x="410" y="310" as="sourcePoint" />
            <mxPoint x="445" y="170" as="targetPoint" />
          </mxGeometry>
        </mxCell>
        <mxCell id="YlhhfSobjes1HJvtvpS9-76" value="1" style="resizable=0;html=1;whiteSpace=wrap;align=right;verticalAlign=bottom;" parent="YlhhfSobjes1HJvtvpS9-75" connectable="0" vertex="1">
          <mxGeometry x="1" relative="1" as="geometry" />
        </mxCell>
        <mxCell id="YlhhfSobjes1HJvtvpS9-77" value="" style="endArrow=none;html=1;rounded=0;entryX=1;entryY=1;entryDx=0;entryDy=0;exitX=0;exitY=0.5;exitDx=0;exitDy=0;" parent="1" source="YlhhfSobjes1HJvtvpS9-41" target="YlhhfSobjes1HJvtvpS9-72" edge="1">
          <mxGeometry relative="1" as="geometry">
            <mxPoint x="520" y="150" as="sourcePoint" />
            <mxPoint x="600" y="125" as="targetPoint" />
          </mxGeometry>
        </mxCell>
        <mxCell id="YlhhfSobjes1HJvtvpS9-78" value="1" style="resizable=0;html=1;whiteSpace=wrap;align=right;verticalAlign=bottom;" parent="YlhhfSobjes1HJvtvpS9-77" connectable="0" vertex="1">
          <mxGeometry x="1" relative="1" as="geometry" />
        </mxCell>
        <mxCell id="YlhhfSobjes1HJvtvpS9-79" value="" style="shape=link;html=1;rounded=0;exitX=1;exitY=0.5;exitDx=0;exitDy=0;entryX=0;entryY=0;entryDx=0;entryDy=0;" parent="1" source="YlhhfSobjes1HJvtvpS9-2" target="YlhhfSobjes1HJvtvpS9-72" edge="1">
          <mxGeometry relative="1" as="geometry">
            <mxPoint x="650" y="73" as="sourcePoint" />
            <mxPoint x="570" y="95" as="targetPoint" />
          </mxGeometry>
        </mxCell>
        <mxCell id="YlhhfSobjes1HJvtvpS9-80" value="M" style="resizable=0;html=1;whiteSpace=wrap;align=left;verticalAlign=bottom;" parent="YlhhfSobjes1HJvtvpS9-79" connectable="0" vertex="1">
          <mxGeometry x="-1" relative="1" as="geometry" />
        </mxCell>
        <mxCell id="YlhhfSobjes1HJvtvpS9-81" value="N" style="resizable=0;html=1;whiteSpace=wrap;align=right;verticalAlign=bottom;" parent="YlhhfSobjes1HJvtvpS9-79" connectable="0" vertex="1">
          <mxGeometry x="1" relative="1" as="geometry" />
        </mxCell>
        <mxCell id="YlhhfSobjes1HJvtvpS9-82" value="sistem bank mengirim uang ke rekening bank milik Supplier" style="shape=note;size=20;whiteSpace=wrap;html=1;" parent="1" vertex="1">
          <mxGeometry x="180" y="160" width="120" height="80" as="geometry" />
        </mxCell>
        <mxCell id="YlhhfSobjes1HJvtvpS9-85" value="" style="endArrow=none;html=1;rounded=0;entryX=0.5;entryY=1;entryDx=0;entryDy=0;exitX=0.5;exitY=0;exitDx=0;exitDy=0;" parent="1" source="YlhhfSobjes1HJvtvpS9-159" target="YlhhfSobjes1HJvtvpS9-1" edge="1">
          <mxGeometry width="50" height="50" relative="1" as="geometry">
            <mxPoint x="400" y="960" as="sourcePoint" />
            <mxPoint x="690" y="780" as="targetPoint" />
          </mxGeometry>
        </mxCell>
        <mxCell id="YlhhfSobjes1HJvtvpS9-86" value="Delivering" style="shape=rhombus;perimeter=rhombusPerimeter;whiteSpace=wrap;html=1;align=center;" parent="1" vertex="1">
          <mxGeometry x="820.0699999999999" y="850" width="120" height="60" as="geometry" />
        </mxCell>
        <mxCell id="YlhhfSobjes1HJvtvpS9-87" value="" style="shape=link;html=1;rounded=0;exitX=1;exitY=0.5;exitDx=0;exitDy=0;entryX=0;entryY=0.5;entryDx=0;entryDy=0;" parent="1" source="YlhhfSobjes1HJvtvpS9-1" target="YlhhfSobjes1HJvtvpS9-86" edge="1">
          <mxGeometry relative="1" as="geometry">
            <mxPoint x="730" y="620" as="sourcePoint" />
            <mxPoint x="890" y="620" as="targetPoint" />
          </mxGeometry>
        </mxCell>
        <mxCell id="YlhhfSobjes1HJvtvpS9-88" value="M" style="resizable=0;html=1;whiteSpace=wrap;align=left;verticalAlign=bottom;" parent="YlhhfSobjes1HJvtvpS9-87" connectable="0" vertex="1">
          <mxGeometry x="-1" relative="1" as="geometry" />
        </mxCell>
        <mxCell id="YlhhfSobjes1HJvtvpS9-89" value="N" style="resizable=0;html=1;whiteSpace=wrap;align=right;verticalAlign=bottom;" parent="YlhhfSobjes1HJvtvpS9-87" connectable="0" vertex="1">
          <mxGeometry x="1" relative="1" as="geometry" />
        </mxCell>
        <mxCell id="YlhhfSobjes1HJvtvpS9-90" value="" style="endArrow=none;html=1;rounded=0;dashed=1;dashPattern=1 2;exitX=1;exitY=0.5;exitDx=0;exitDy=0;entryX=0;entryY=0.5;entryDx=0;entryDy=0;" parent="1" source="YlhhfSobjes1HJvtvpS9-42" target="YlhhfSobjes1HJvtvpS9-97" edge="1">
          <mxGeometry relative="1" as="geometry">
            <mxPoint x="280" y="640" as="sourcePoint" />
            <mxPoint x="670" y="630" as="targetPoint" />
          </mxGeometry>
        </mxCell>
        <mxCell id="YlhhfSobjes1HJvtvpS9-91" value="N" style="resizable=0;html=1;whiteSpace=wrap;align=right;verticalAlign=bottom;" parent="YlhhfSobjes1HJvtvpS9-90" connectable="0" vertex="1">
          <mxGeometry x="1" relative="1" as="geometry" />
        </mxCell>
        <mxCell id="YlhhfSobjes1HJvtvpS9-92" value="Amazon mengirim barang dengan armadanya" style="shape=note;size=20;whiteSpace=wrap;html=1;" parent="1" vertex="1">
          <mxGeometry x="810.07" y="920" width="140" height="100" as="geometry" />
        </mxCell>
        <mxCell id="YlhhfSobjes1HJvtvpS9-93" value="" style="shape=link;html=1;rounded=0;exitX=0.5;exitY=0;exitDx=0;exitDy=0;entryX=0.5;entryY=1;entryDx=0;entryDy=0;" parent="1" source="YlhhfSobjes1HJvtvpS9-86" target="YlhhfSobjes1HJvtvpS9-3" edge="1">
          <mxGeometry relative="1" as="geometry">
            <mxPoint x="900.0699999999999" y="345" as="sourcePoint" />
            <mxPoint x="1140.07" y="130" as="targetPoint" />
          </mxGeometry>
        </mxCell>
        <mxCell id="YlhhfSobjes1HJvtvpS9-94" value="M" style="resizable=0;html=1;whiteSpace=wrap;align=left;verticalAlign=bottom;" parent="YlhhfSobjes1HJvtvpS9-93" connectable="0" vertex="1">
          <mxGeometry x="-1" relative="1" as="geometry" />
        </mxCell>
        <mxCell id="YlhhfSobjes1HJvtvpS9-95" value="N" style="resizable=0;html=1;whiteSpace=wrap;align=right;verticalAlign=bottom;" parent="YlhhfSobjes1HJvtvpS9-93" connectable="0" vertex="1">
          <mxGeometry x="1" relative="1" as="geometry" />
        </mxCell>
        <mxCell id="YlhhfSobjes1HJvtvpS9-96" value="Setiap armada mengirim barang pada Costumer" style="shape=note;size=20;whiteSpace=wrap;html=1;" parent="1" vertex="1">
          <mxGeometry x="910.0699999999999" y="230" width="140" height="80" as="geometry" />
        </mxCell>
        <mxCell id="YlhhfSobjes1HJvtvpS9-42" value="Invoice" style="shape=ext;margin=3;double=1;whiteSpace=wrap;html=1;align=center;" parent="1" vertex="1">
          <mxGeometry x="410" y="450" width="100" height="40" as="geometry" />
        </mxCell>
        <mxCell id="YlhhfSobjes1HJvtvpS9-97" value="Managing Invoices" style="shape=rhombus;perimeter=rhombusPerimeter;whiteSpace=wrap;html=1;align=center;" parent="1" vertex="1">
          <mxGeometry x="720.0699999999999" y="600" width="120" height="60" as="geometry" />
        </mxCell>
        <mxCell id="YlhhfSobjes1HJvtvpS9-98" value="" style="shape=link;html=1;rounded=0;exitX=1;exitY=0;exitDx=0;exitDy=0;entryX=0;entryY=1;entryDx=0;entryDy=0;" parent="1" source="YlhhfSobjes1HJvtvpS9-1" target="YlhhfSobjes1HJvtvpS9-97" edge="1">
          <mxGeometry relative="1" as="geometry">
            <mxPoint x="420" y="870" as="sourcePoint" />
            <mxPoint x="250" y="655" as="targetPoint" />
          </mxGeometry>
        </mxCell>
        <mxCell id="YlhhfSobjes1HJvtvpS9-99" value="M" style="resizable=0;html=1;whiteSpace=wrap;align=left;verticalAlign=bottom;" parent="YlhhfSobjes1HJvtvpS9-98" connectable="0" vertex="1">
          <mxGeometry x="-1" relative="1" as="geometry" />
        </mxCell>
        <mxCell id="YlhhfSobjes1HJvtvpS9-100" value="N" style="resizable=0;html=1;whiteSpace=wrap;align=right;verticalAlign=bottom;" parent="YlhhfSobjes1HJvtvpS9-98" connectable="0" vertex="1">
          <mxGeometry x="1" relative="1" as="geometry" />
        </mxCell>
        <mxCell id="YlhhfSobjes1HJvtvpS9-45" value="Supplier wajib membuat invoice semua pesanan. Dan mengirimkannya ke Amazon" style="shape=note;size=20;whiteSpace=wrap;html=1;" parent="1" vertex="1">
          <mxGeometry x="390" y="669.5" width="140" height="100" as="geometry" />
        </mxCell>
        <mxCell id="YlhhfSobjes1HJvtvpS9-101" value="" style="shape=link;html=1;rounded=0;exitX=0;exitY=0.5;exitDx=0;exitDy=0;entryX=0.5;entryY=0;entryDx=0;entryDy=0;" parent="1" source="YlhhfSobjes1HJvtvpS9-3" target="YlhhfSobjes1HJvtvpS9-97" edge="1">
          <mxGeometry relative="1" as="geometry">
            <mxPoint x="720.0699999999999" y="75" as="sourcePoint" />
            <mxPoint x="750.0699999999999" y="400" as="targetPoint" />
          </mxGeometry>
        </mxCell>
        <mxCell id="YlhhfSobjes1HJvtvpS9-102" value="M" style="resizable=0;html=1;whiteSpace=wrap;align=left;verticalAlign=bottom;" parent="YlhhfSobjes1HJvtvpS9-101" connectable="0" vertex="1">
          <mxGeometry x="-1" relative="1" as="geometry" />
        </mxCell>
        <mxCell id="YlhhfSobjes1HJvtvpS9-103" value="N" style="resizable=0;html=1;whiteSpace=wrap;align=right;verticalAlign=bottom;" parent="YlhhfSobjes1HJvtvpS9-101" connectable="0" vertex="1">
          <mxGeometry x="1" relative="1" as="geometry" />
        </mxCell>
        <mxCell id="YlhhfSobjes1HJvtvpS9-109" value="" style="endArrow=none;html=1;rounded=0;exitX=0.5;exitY=0;exitDx=0;exitDy=0;entryX=0.5;entryY=1;entryDx=0;entryDy=0;" parent="1" source="YlhhfSobjes1HJvtvpS9-122" target="YlhhfSobjes1HJvtvpS9-1" edge="1">
          <mxGeometry width="50" height="50" relative="1" as="geometry">
            <mxPoint x="520.0000000000005" y="960" as="sourcePoint" />
            <mxPoint x="460" y="900" as="targetPoint" />
          </mxGeometry>
        </mxCell>
        <mxCell id="YlhhfSobjes1HJvtvpS9-110" value="" style="endArrow=none;html=1;rounded=0;exitX=0;exitY=0;exitDx=0;exitDy=0;entryX=0.5;entryY=1;entryDx=0;entryDy=0;" parent="1" source="YlhhfSobjes1HJvtvpS9-125" target="YlhhfSobjes1HJvtvpS9-1" edge="1">
          <mxGeometry width="50" height="50" relative="1" as="geometry">
            <mxPoint x="594.6446609406726" y="955.8578643762685" as="sourcePoint" />
            <mxPoint x="470" y="910" as="targetPoint" />
          </mxGeometry>
        </mxCell>
        <mxCell id="YlhhfSobjes1HJvtvpS9-112" value="" style="endArrow=none;html=1;rounded=0;exitX=0;exitY=0.5;exitDx=0;exitDy=0;entryX=0.5;entryY=1;entryDx=0;entryDy=0;" parent="1" source="YlhhfSobjes1HJvtvpS9-119" target="YlhhfSobjes1HJvtvpS9-1" edge="1">
          <mxGeometry width="50" height="50" relative="1" as="geometry">
            <mxPoint x="600.0000000000146" y="920" as="sourcePoint" />
            <mxPoint x="470" y="910" as="targetPoint" />
          </mxGeometry>
        </mxCell>
        <mxCell id="YlhhfSobjes1HJvtvpS9-113" value="" style="endArrow=none;html=1;rounded=0;entryX=0.5;entryY=1;entryDx=0;entryDy=0;exitX=1;exitY=0;exitDx=0;exitDy=0;" parent="1" source="YlhhfSobjes1HJvtvpS9-116" target="YlhhfSobjes1HJvtvpS9-1" edge="1">
          <mxGeometry width="50" height="50" relative="1" as="geometry">
            <mxPoint x="350" y="940" as="sourcePoint" />
            <mxPoint x="470" y="910" as="targetPoint" />
          </mxGeometry>
        </mxCell>
        <mxCell id="YlhhfSobjes1HJvtvpS9-114" value="" style="endArrow=none;html=1;rounded=0;entryX=0.5;entryY=1;entryDx=0;entryDy=0;exitX=1;exitY=0.5;exitDx=0;exitDy=0;" parent="1" source="YlhhfSobjes1HJvtvpS9-117" target="YlhhfSobjes1HJvtvpS9-1" edge="1">
          <mxGeometry width="50" height="50" relative="1" as="geometry">
            <mxPoint x="350" y="910" as="sourcePoint" />
            <mxPoint x="470" y="910" as="targetPoint" />
          </mxGeometry>
        </mxCell>
        <mxCell id="YlhhfSobjes1HJvtvpS9-116" value="Password" style="ellipse;whiteSpace=wrap;html=1;align=center;" parent="1" vertex="1">
          <mxGeometry x="240" y="950" width="100" height="40" as="geometry" />
        </mxCell>
        <mxCell id="YlhhfSobjes1HJvtvpS9-117" value="ID" style="ellipse;whiteSpace=wrap;html=1;align=center;fontStyle=4;" parent="1" vertex="1">
          <mxGeometry x="220" y="900" width="100" height="40" as="geometry" />
        </mxCell>
        <mxCell id="YlhhfSobjes1HJvtvpS9-119" value="No Telp" style="ellipse;whiteSpace=wrap;html=1;align=center;" parent="1" vertex="1">
          <mxGeometry x="600" y="900" width="100" height="40" as="geometry" />
        </mxCell>
        <mxCell id="YlhhfSobjes1HJvtvpS9-122" value="Nama" style="ellipse;whiteSpace=wrap;html=1;align=center;" parent="1" vertex="1">
          <mxGeometry x="470" y="960" width="100" height="40" as="geometry" />
        </mxCell>
        <mxCell id="YlhhfSobjes1HJvtvpS9-125" value="Hak Akses" style="ellipse;whiteSpace=wrap;html=1;align=center;" parent="1" vertex="1">
          <mxGeometry x="580" y="950" width="100" height="40" as="geometry" />
        </mxCell>
        <mxCell id="YlhhfSobjes1HJvtvpS9-58" value="Semua Customer mentransfer uang ke bank" style="shape=note;size=20;whiteSpace=wrap;html=1;" parent="1" vertex="1">
          <mxGeometry x="740.0699999999999" y="130" width="120" height="80" as="geometry" />
        </mxCell>
        <mxCell id="YlhhfSobjes1HJvtvpS9-130" value="Nama" style="ellipse;whiteSpace=wrap;html=1;align=center;" parent="1" vertex="1">
          <mxGeometry x="1080.07" y="72" width="100" height="40" as="geometry" />
        </mxCell>
        <mxCell id="YlhhfSobjes1HJvtvpS9-131" value="No Telp" style="ellipse;whiteSpace=wrap;html=1;align=center;" parent="1" vertex="1">
          <mxGeometry x="1080.07" y="172" width="100" height="40" as="geometry" />
        </mxCell>
        <mxCell id="YlhhfSobjes1HJvtvpS9-132" value="Password" style="ellipse;whiteSpace=wrap;html=1;align=center;" parent="1" vertex="1">
          <mxGeometry x="1080.07" y="-33" width="100" height="40" as="geometry" />
        </mxCell>
        <mxCell id="YlhhfSobjes1HJvtvpS9-133" value="Username" style="ellipse;whiteSpace=wrap;html=1;align=center;" parent="1" vertex="1">
          <mxGeometry x="1080.07" y="-82" width="100" height="40" as="geometry" />
        </mxCell>
        <mxCell id="YlhhfSobjes1HJvtvpS9-134" value="Alamat" style="ellipse;whiteSpace=wrap;html=1;align=center;" parent="1" vertex="1">
          <mxGeometry x="1080.07" y="122" width="100" height="40" as="geometry" />
        </mxCell>
        <mxCell id="YlhhfSobjes1HJvtvpS9-135" value="" style="endArrow=none;html=1;rounded=0;exitX=1;exitY=0.5;exitDx=0;exitDy=0;entryX=0;entryY=0.5;entryDx=0;entryDy=0;" parent="1" source="YlhhfSobjes1HJvtvpS9-3" target="YlhhfSobjes1HJvtvpS9-126" edge="1">
          <mxGeometry width="50" height="50" relative="1" as="geometry">
            <mxPoint x="780.0699999999999" y="260" as="sourcePoint" />
            <mxPoint x="830.0699999999999" y="210" as="targetPoint" />
          </mxGeometry>
        </mxCell>
        <mxCell id="YlhhfSobjes1HJvtvpS9-136" value="" style="endArrow=none;html=1;rounded=0;exitX=0;exitY=0.5;exitDx=0;exitDy=0;entryX=1;entryY=0.5;entryDx=0;entryDy=0;" parent="1" source="YlhhfSobjes1HJvtvpS9-133" target="YlhhfSobjes1HJvtvpS9-3" edge="1">
          <mxGeometry width="50" height="50" relative="1" as="geometry">
            <mxPoint x="1080.07" y="-20" as="sourcePoint" />
            <mxPoint x="960.0699999999999" y="75" as="targetPoint" />
          </mxGeometry>
        </mxCell>
        <mxCell id="YlhhfSobjes1HJvtvpS9-137" value="" style="endArrow=none;html=1;rounded=0;entryX=1;entryY=0.5;entryDx=0;entryDy=0;exitX=0;exitY=0.5;exitDx=0;exitDy=0;" parent="1" source="YlhhfSobjes1HJvtvpS9-132" target="YlhhfSobjes1HJvtvpS9-3" edge="1">
          <mxGeometry width="50" height="50" relative="1" as="geometry">
            <mxPoint x="1080" y="30" as="sourcePoint" />
            <mxPoint x="1060.07" y="75" as="targetPoint" />
            <Array as="points" />
          </mxGeometry>
        </mxCell>
        <mxCell id="YlhhfSobjes1HJvtvpS9-138" value="" style="endArrow=none;html=1;rounded=0;exitX=0;exitY=0.5;exitDx=0;exitDy=0;entryX=1;entryY=0.5;entryDx=0;entryDy=0;" parent="1" source="YlhhfSobjes1HJvtvpS9-130" target="YlhhfSobjes1HJvtvpS9-3" edge="1">
          <mxGeometry width="50" height="50" relative="1" as="geometry">
            <mxPoint x="1080.07" y="90" as="sourcePoint" />
            <mxPoint x="1060.07" y="75" as="targetPoint" />
            <Array as="points" />
          </mxGeometry>
        </mxCell>
        <mxCell id="YlhhfSobjes1HJvtvpS9-139" value="" style="endArrow=none;html=1;rounded=0;exitX=0;exitY=0.5;exitDx=0;exitDy=0;entryX=1;entryY=0.5;entryDx=0;entryDy=0;" parent="1" source="YlhhfSobjes1HJvtvpS9-134" target="YlhhfSobjes1HJvtvpS9-3" edge="1">
          <mxGeometry width="50" height="50" relative="1" as="geometry">
            <mxPoint x="1080.07" y="140" as="sourcePoint" />
            <mxPoint x="1060.07" y="75" as="targetPoint" />
            <Array as="points" />
          </mxGeometry>
        </mxCell>
        <mxCell id="YlhhfSobjes1HJvtvpS9-140" value="" style="endArrow=none;html=1;rounded=0;exitX=0;exitY=0.5;exitDx=0;exitDy=0;entryX=1;entryY=0.5;entryDx=0;entryDy=0;" parent="1" source="YlhhfSobjes1HJvtvpS9-131" target="YlhhfSobjes1HJvtvpS9-3" edge="1">
          <mxGeometry width="50" height="50" relative="1" as="geometry">
            <mxPoint x="1080.07" y="190" as="sourcePoint" />
            <mxPoint x="1060.07" y="75" as="targetPoint" />
            <Array as="points" />
          </mxGeometry>
        </mxCell>
        <mxCell id="YlhhfSobjes1HJvtvpS9-142" value="" style="endArrow=none;html=1;rounded=0;exitX=0.5;exitY=1;exitDx=0;exitDy=0;entryX=0.5;entryY=0;entryDx=0;entryDy=0;" parent="1" source="YlhhfSobjes1HJvtvpS9-141" target="YlhhfSobjes1HJvtvpS9-19" edge="1">
          <mxGeometry width="50" height="50" relative="1" as="geometry">
            <mxPoint x="1090.07" y="-90" as="sourcePoint" />
            <mxPoint x="1060.07" y="-5" as="targetPoint" />
          </mxGeometry>
        </mxCell>
        <mxCell id="YlhhfSobjes1HJvtvpS9-143" value="" style="endArrow=none;html=1;rounded=0;entryX=0.5;entryY=0;entryDx=0;entryDy=0;exitX=0.5;exitY=1;exitDx=0;exitDy=0;" parent="1" source="YlhhfSobjes1HJvtvpS9-129" target="YlhhfSobjes1HJvtvpS9-19" edge="1">
          <mxGeometry width="50" height="50" relative="1" as="geometry">
            <mxPoint x="960.0699999999999" y="-220" as="sourcePoint" />
            <mxPoint x="1060.07" y="-5" as="targetPoint" />
          </mxGeometry>
        </mxCell>
        <mxCell id="YlhhfSobjes1HJvtvpS9-144" value="Harga" style="ellipse;whiteSpace=wrap;html=1;align=center;" parent="1" vertex="1">
          <mxGeometry x="890.0699999999999" y="-240" width="100" height="40" as="geometry" />
        </mxCell>
        <mxCell id="YlhhfSobjes1HJvtvpS9-145" value="" style="endArrow=none;html=1;rounded=0;entryX=0.5;entryY=0;entryDx=0;entryDy=0;exitX=0.5;exitY=1;exitDx=0;exitDy=0;" parent="1" source="YlhhfSobjes1HJvtvpS9-144" target="YlhhfSobjes1HJvtvpS9-19" edge="1">
          <mxGeometry width="50" height="50" relative="1" as="geometry">
            <mxPoint x="830.0699999999999" y="-190" as="sourcePoint" />
            <mxPoint x="890.0699999999999" y="-160" as="targetPoint" />
          </mxGeometry>
        </mxCell>
        <mxCell id="YlhhfSobjes1HJvtvpS9-146" value="ID_Supplier" style="ellipse;whiteSpace=wrap;html=1;align=center;fontStyle=4;" parent="1" vertex="1">
          <mxGeometry x="-270" y="70" width="100" height="40" as="geometry" />
        </mxCell>
        <mxCell id="YlhhfSobjes1HJvtvpS9-147" value="" style="endArrow=none;html=1;rounded=0;entryX=1;entryY=0.5;entryDx=0;entryDy=0;exitX=0;exitY=0.5;exitDx=0;exitDy=0;" parent="1" source="YlhhfSobjes1HJvtvpS9-2" target="YlhhfSobjes1HJvtvpS9-146" edge="1">
          <mxGeometry width="50" height="50" relative="1" as="geometry">
            <mxPoint x="660" y="-110" as="sourcePoint" />
            <mxPoint x="720" y="-80" as="targetPoint" />
          </mxGeometry>
        </mxCell>
        <mxCell id="YlhhfSobjes1HJvtvpS9-148" value="Nama" style="ellipse;whiteSpace=wrap;html=1;align=center;" parent="1" vertex="1">
          <mxGeometry x="-270" y="20" width="100" height="40" as="geometry" />
        </mxCell>
        <mxCell id="YlhhfSobjes1HJvtvpS9-149" value="No Telp" style="ellipse;whiteSpace=wrap;html=1;align=center;" parent="1" vertex="1">
          <mxGeometry x="-270" y="168" width="100" height="40" as="geometry" />
        </mxCell>
        <mxCell id="YlhhfSobjes1HJvtvpS9-150" value="Password" style="ellipse;whiteSpace=wrap;html=1;align=center;" parent="1" vertex="1">
          <mxGeometry x="-270" y="-30" width="100" height="40" as="geometry" />
        </mxCell>
        <mxCell id="YlhhfSobjes1HJvtvpS9-151" value="Username" style="ellipse;whiteSpace=wrap;html=1;align=center;" parent="1" vertex="1">
          <mxGeometry x="-270" y="-80" width="100" height="40" as="geometry" />
        </mxCell>
        <mxCell id="YlhhfSobjes1HJvtvpS9-152" value="Alamat" style="ellipse;whiteSpace=wrap;html=1;align=center;" parent="1" vertex="1">
          <mxGeometry x="-270" y="118" width="100" height="40" as="geometry" />
        </mxCell>
        <mxCell id="YlhhfSobjes1HJvtvpS9-154" value="" style="endArrow=none;html=1;rounded=0;entryX=0;entryY=0.5;entryDx=0;entryDy=0;exitX=1;exitY=0.5;exitDx=0;exitDy=0;" parent="1" source="YlhhfSobjes1HJvtvpS9-151" target="YlhhfSobjes1HJvtvpS9-2" edge="1">
          <mxGeometry width="50" height="50" relative="1" as="geometry">
            <mxPoint x="-10" y="75" as="sourcePoint" />
            <mxPoint x="-30" y="75" as="targetPoint" />
          </mxGeometry>
        </mxCell>
        <mxCell id="YlhhfSobjes1HJvtvpS9-155" value="" style="endArrow=none;html=1;rounded=0;entryX=0;entryY=0.5;entryDx=0;entryDy=0;exitX=1;exitY=0.5;exitDx=0;exitDy=0;" parent="1" source="YlhhfSobjes1HJvtvpS9-150" target="YlhhfSobjes1HJvtvpS9-2" edge="1">
          <mxGeometry width="50" height="50" relative="1" as="geometry">
            <mxPoint x="-160" y="-10" as="sourcePoint" />
            <mxPoint x="-130" y="75" as="targetPoint" />
          </mxGeometry>
        </mxCell>
        <mxCell id="YlhhfSobjes1HJvtvpS9-156" value="" style="endArrow=none;html=1;rounded=0;entryX=0;entryY=0.5;entryDx=0;entryDy=0;exitX=1;exitY=0.5;exitDx=0;exitDy=0;" parent="1" source="YlhhfSobjes1HJvtvpS9-148" target="YlhhfSobjes1HJvtvpS9-2" edge="1">
          <mxGeometry width="50" height="50" relative="1" as="geometry">
            <mxPoint x="-160" y="40" as="sourcePoint" />
            <mxPoint x="-130" y="75" as="targetPoint" />
          </mxGeometry>
        </mxCell>
        <mxCell id="YlhhfSobjes1HJvtvpS9-157" value="" style="endArrow=none;html=1;rounded=0;entryX=0;entryY=0.5;entryDx=0;entryDy=0;exitX=1;exitY=0.5;exitDx=0;exitDy=0;" parent="1" source="YlhhfSobjes1HJvtvpS9-152" target="YlhhfSobjes1HJvtvpS9-2" edge="1">
          <mxGeometry width="50" height="50" relative="1" as="geometry">
            <mxPoint x="-160" y="100" as="sourcePoint" />
            <mxPoint x="-130" y="75" as="targetPoint" />
          </mxGeometry>
        </mxCell>
        <mxCell id="YlhhfSobjes1HJvtvpS9-158" value="" style="endArrow=none;html=1;rounded=0;entryX=0;entryY=0.5;entryDx=0;entryDy=0;exitX=1;exitY=0.5;exitDx=0;exitDy=0;" parent="1" source="YlhhfSobjes1HJvtvpS9-149" target="YlhhfSobjes1HJvtvpS9-2" edge="1">
          <mxGeometry width="50" height="50" relative="1" as="geometry">
            <mxPoint x="-160" y="150" as="sourcePoint" />
            <mxPoint x="-130" y="75" as="targetPoint" />
            <Array as="points" />
          </mxGeometry>
        </mxCell>
        <mxCell id="YlhhfSobjes1HJvtvpS9-159" value="Delivery" style="ellipse;whiteSpace=wrap;html=1;align=center;fontStyle=4;" parent="1" vertex="1">
          <mxGeometry x="350" y="960" width="100" height="40" as="geometry" />
        </mxCell>
        <mxCell id="YlhhfSobjes1HJvtvpS9-160" value="Username" style="ellipse;whiteSpace=wrap;html=1;align=center;" parent="1" vertex="1">
          <mxGeometry x="970.0700000000002" y="760" width="100" height="40" as="geometry" />
        </mxCell>
        <mxCell id="YlhhfSobjes1HJvtvpS9-161" value="Password" style="ellipse;whiteSpace=wrap;html=1;align=center;" parent="1" vertex="1">
          <mxGeometry x="970.07" y="810" width="100" height="40" as="geometry" />
        </mxCell>
        <mxCell id="YlhhfSobjes1HJvtvpS9-163" value="No Telp" style="ellipse;whiteSpace=wrap;html=1;align=center;" parent="1" vertex="1">
          <mxGeometry x="970.0700000000002" y="910" width="100" height="40" as="geometry" />
        </mxCell>
        <mxCell id="YlhhfSobjes1HJvtvpS9-164" value="Alamat" style="ellipse;whiteSpace=wrap;html=1;align=center;" parent="1" vertex="1">
          <mxGeometry x="970.0700000000002" y="960" width="100" height="40" as="geometry" />
        </mxCell>
        <mxCell id="YlhhfSobjes1HJvtvpS9-165" value="" style="endArrow=none;html=1;rounded=0;entryX=0;entryY=0.5;entryDx=0;entryDy=0;exitX=1;exitY=0.5;exitDx=0;exitDy=0;" parent="1" source="YlhhfSobjes1HJvtvpS9-86" target="YlhhfSobjes1HJvtvpS9-162" edge="1">
          <mxGeometry width="50" height="50" relative="1" as="geometry">
            <mxPoint x="1160.0700000000002" y="860" as="sourcePoint" />
            <mxPoint x="1230.0700000000002" y="770" as="targetPoint" />
          </mxGeometry>
        </mxCell>
        <mxCell id="YlhhfSobjes1HJvtvpS9-167" value="" style="endArrow=none;html=1;rounded=0;entryX=0;entryY=0.5;entryDx=0;entryDy=0;exitX=1;exitY=0.5;exitDx=0;exitDy=0;" parent="1" source="YlhhfSobjes1HJvtvpS9-86" target="YlhhfSobjes1HJvtvpS9-160" edge="1">
          <mxGeometry width="50" height="50" relative="1" as="geometry">
            <mxPoint x="1160.0700000000002" y="860" as="sourcePoint" />
            <mxPoint x="1170.0700000000002" y="890" as="targetPoint" />
          </mxGeometry>
        </mxCell>
        <mxCell id="YlhhfSobjes1HJvtvpS9-168" value="" style="endArrow=none;html=1;rounded=0;entryX=1;entryY=0.5;entryDx=0;entryDy=0;exitX=0;exitY=0.5;exitDx=0;exitDy=0;" parent="1" source="YlhhfSobjes1HJvtvpS9-161" target="YlhhfSobjes1HJvtvpS9-86" edge="1">
          <mxGeometry width="50" height="50" relative="1" as="geometry">
            <mxPoint x="1220.0700000000002" y="910" as="sourcePoint" />
            <mxPoint x="1160.0700000000002" y="860" as="targetPoint" />
          </mxGeometry>
        </mxCell>
        <mxCell id="YlhhfSobjes1HJvtvpS9-169" value="" style="endArrow=none;html=1;rounded=0;entryX=1;entryY=0.5;entryDx=0;entryDy=0;exitX=0;exitY=0.5;exitDx=0;exitDy=0;" parent="1" source="YlhhfSobjes1HJvtvpS9-163" target="YlhhfSobjes1HJvtvpS9-86" edge="1">
          <mxGeometry width="50" height="50" relative="1" as="geometry">
            <mxPoint x="1100.0700000000002" y="910" as="sourcePoint" />
            <mxPoint x="1160.0700000000002" y="860" as="targetPoint" />
          </mxGeometry>
        </mxCell>
        <mxCell id="YlhhfSobjes1HJvtvpS9-170" value="" style="endArrow=none;html=1;rounded=0;entryX=1;entryY=0.5;entryDx=0;entryDy=0;exitX=0;exitY=0.5;exitDx=0;exitDy=0;" parent="1" source="YlhhfSobjes1HJvtvpS9-164" target="YlhhfSobjes1HJvtvpS9-86" edge="1">
          <mxGeometry width="50" height="50" relative="1" as="geometry">
            <mxPoint x="1145.0700000000002" y="956" as="sourcePoint" />
            <mxPoint x="1160.0700000000002" y="860" as="targetPoint" />
          </mxGeometry>
        </mxCell>
        <mxCell id="YlhhfSobjes1HJvtvpS9-172" value="ID_Supplier" style="ellipse;whiteSpace=wrap;html=1;align=center;fontStyle=4;" parent="1" vertex="1">
          <mxGeometry x="-80" y="-390" width="100" height="40" as="geometry" />
        </mxCell>
        <mxCell id="YlhhfSobjes1HJvtvpS9-173" value="" style="endArrow=none;html=1;rounded=0;entryX=0.5;entryY=0;entryDx=0;entryDy=0;exitX=0.5;exitY=1;exitDx=0;exitDy=0;" parent="1" source="YlhhfSobjes1HJvtvpS9-171" target="YlhhfSobjes1HJvtvpS9-4" edge="1">
          <mxGeometry width="50" height="50" relative="1" as="geometry">
            <mxPoint x="110" y="-220" as="sourcePoint" />
            <mxPoint x="210" y="-5" as="targetPoint" />
          </mxGeometry>
        </mxCell>
        <mxCell id="YlhhfSobjes1HJvtvpS9-175" value="" style="endArrow=none;html=1;rounded=0;entryX=0.5;entryY=0;entryDx=0;entryDy=0;exitX=0.5;exitY=1;exitDx=0;exitDy=0;" parent="1" source="YlhhfSobjes1HJvtvpS9-174" target="YlhhfSobjes1HJvtvpS9-4" edge="1">
          <mxGeometry width="50" height="50" relative="1" as="geometry">
            <mxPoint x="-20" y="-190" as="sourcePoint" />
            <mxPoint x="40" y="-160" as="targetPoint" />
          </mxGeometry>
        </mxCell>
        <mxCell id="YlhhfSobjes1HJvtvpS9-176" value="" style="endArrow=none;html=1;rounded=0;entryX=0.5;entryY=1;entryDx=0;entryDy=0;exitX=0.5;exitY=0;exitDx=0;exitDy=0;" parent="1" source="YlhhfSobjes1HJvtvpS9-4" target="YlhhfSobjes1HJvtvpS9-172" edge="1">
          <mxGeometry width="50" height="50" relative="1" as="geometry">
            <mxPoint x="100" y="-190" as="sourcePoint" />
            <mxPoint x="40" y="-160" as="targetPoint" />
          </mxGeometry>
        </mxCell>
        <mxCell id="YlhhfSobjes1HJvtvpS9-179" value="Bahan" style="ellipse;whiteSpace=wrap;html=1;align=center;" parent="1" vertex="1">
          <mxGeometry x="-80" y="-340" width="100" height="40" as="geometry" />
        </mxCell>
        <mxCell id="YlhhfSobjes1HJvtvpS9-180" value="Keterangan Produk" style="ellipse;whiteSpace=wrap;html=1;align=center;" parent="1" vertex="1">
          <mxGeometry x="40" y="-340" width="100" height="40" as="geometry" />
        </mxCell>
        <mxCell id="YlhhfSobjes1HJvtvpS9-181" value="" style="endArrow=none;html=1;rounded=0;entryX=0.5;entryY=0;entryDx=0;entryDy=0;exitX=0.5;exitY=1;exitDx=0;exitDy=0;" parent="1" source="YlhhfSobjes1HJvtvpS9-178" target="YlhhfSobjes1HJvtvpS9-4" edge="1">
          <mxGeometry width="50" height="50" relative="1" as="geometry">
            <mxPoint x="100" y="-190" as="sourcePoint" />
            <mxPoint x="40" y="-160" as="targetPoint" />
          </mxGeometry>
        </mxCell>
        <mxCell id="YlhhfSobjes1HJvtvpS9-182" value="" style="endArrow=none;html=1;rounded=0;entryX=0.5;entryY=0;entryDx=0;entryDy=0;exitX=0.5;exitY=1;exitDx=0;exitDy=0;" parent="1" source="YlhhfSobjes1HJvtvpS9-180" target="YlhhfSobjes1HJvtvpS9-4" edge="1">
          <mxGeometry width="50" height="50" relative="1" as="geometry">
            <mxPoint x="100" y="-240" as="sourcePoint" />
            <mxPoint x="40" y="-160" as="targetPoint" />
          </mxGeometry>
        </mxCell>
        <mxCell id="YlhhfSobjes1HJvtvpS9-183" value="" style="endArrow=none;html=1;rounded=0;exitX=0.5;exitY=1;exitDx=0;exitDy=0;entryX=0.5;entryY=0;entryDx=0;entryDy=0;" parent="1" source="YlhhfSobjes1HJvtvpS9-177" target="YlhhfSobjes1HJvtvpS9-4" edge="1">
          <mxGeometry width="50" height="50" relative="1" as="geometry">
            <mxPoint x="100" y="-290" as="sourcePoint" />
            <mxPoint x="30" y="-200" as="targetPoint" />
          </mxGeometry>
        </mxCell>
        <mxCell id="YlhhfSobjes1HJvtvpS9-184" value="" style="endArrow=none;html=1;rounded=0;exitX=0.5;exitY=1;exitDx=0;exitDy=0;entryX=0.5;entryY=0;entryDx=0;entryDy=0;" parent="1" source="YlhhfSobjes1HJvtvpS9-179" target="YlhhfSobjes1HJvtvpS9-4" edge="1">
          <mxGeometry width="50" height="50" relative="1" as="geometry">
            <mxPoint x="-20" y="-240" as="sourcePoint" />
            <mxPoint x="30" y="-230" as="targetPoint" />
          </mxGeometry>
        </mxCell>
        <mxCell id="YlhhfSobjes1HJvtvpS9-177" value="Kategori" style="ellipse;whiteSpace=wrap;html=1;align=center;" parent="1" vertex="1">
          <mxGeometry x="-80" y="-290" width="100" height="40" as="geometry" />
        </mxCell>
        <mxCell id="YlhhfSobjes1HJvtvpS9-171" value="Nama Produk" style="ellipse;whiteSpace=wrap;html=1;align=center;" parent="1" vertex="1">
          <mxGeometry x="-80" y="-240" width="100" height="40" as="geometry" />
        </mxCell>
        <mxCell id="YlhhfSobjes1HJvtvpS9-178" value="Ukuran" style="ellipse;whiteSpace=wrap;html=1;align=center;" parent="1" vertex="1">
          <mxGeometry x="40" y="-290" width="100" height="40" as="geometry" />
        </mxCell>
        <mxCell id="YlhhfSobjes1HJvtvpS9-174" value="Jenis" style="ellipse;whiteSpace=wrap;html=1;align=center;" parent="1" vertex="1">
          <mxGeometry x="40" y="-240" width="100" height="40" as="geometry" />
        </mxCell>
        <mxCell id="YlhhfSobjes1HJvtvpS9-162" value="ID_Delivery" style="ellipse;whiteSpace=wrap;html=1;align=center;" parent="1" vertex="1">
          <mxGeometry x="970.0700000000002" y="860" width="100" height="40" as="geometry" />
        </mxCell>
        <mxCell id="YlhhfSobjes1HJvtvpS9-126" value="ID_User" style="ellipse;whiteSpace=wrap;html=1;align=center;fontStyle=4;" parent="1" vertex="1">
          <mxGeometry x="1080.07" y="17" width="100" height="40" as="geometry" />
        </mxCell>
        <mxCell id="YlhhfSobjes1HJvtvpS9-188" value="Tanggal Invoices" style="ellipse;shape=doubleEllipse;margin=3;whiteSpace=wrap;html=1;align=center;" parent="1" vertex="1">
          <mxGeometry x="250" y="450" width="100" height="40" as="geometry" />
        </mxCell>
        <mxCell id="YlhhfSobjes1HJvtvpS9-189" value="Keterangan Invoices" style="ellipse;shape=doubleEllipse;margin=3;whiteSpace=wrap;html=1;align=center;" parent="1" vertex="1">
          <mxGeometry x="569.9999999999999" y="450" width="100" height="40" as="geometry" />
        </mxCell>
        <mxCell id="YlhhfSobjes1HJvtvpS9-190" value="" style="endArrow=none;dashed=1;html=1;rounded=0;entryX=0;entryY=0.5;entryDx=0;entryDy=0;exitX=1;exitY=0.5;exitDx=0;exitDy=0;" parent="1" source="YlhhfSobjes1HJvtvpS9-188" target="YlhhfSobjes1HJvtvpS9-42" edge="1">
          <mxGeometry width="50" height="50" relative="1" as="geometry">
            <mxPoint x="350" y="680" as="sourcePoint" />
            <mxPoint x="400" y="630" as="targetPoint" />
          </mxGeometry>
        </mxCell>
        <mxCell id="YlhhfSobjes1HJvtvpS9-191" value="" style="endArrow=none;dashed=1;html=1;rounded=0;entryX=1;entryY=0.5;entryDx=0;entryDy=0;exitX=0;exitY=0.5;exitDx=0;exitDy=0;" parent="1" source="YlhhfSobjes1HJvtvpS9-189" target="YlhhfSobjes1HJvtvpS9-42" edge="1">
          <mxGeometry width="50" height="50" relative="1" as="geometry">
            <mxPoint x="390" y="590" as="sourcePoint" />
            <mxPoint x="420" y="640" as="targetPoint" />
          </mxGeometry>
        </mxCell>
        <mxCell id="YlhhfSobjes1HJvtvpS9-192" value="Looking" style="shape=rhombus;perimeter=rhombusPerimeter;whiteSpace=wrap;html=1;align=center;" parent="1" vertex="1">
          <mxGeometry x="400" y="-125" width="120" height="60" as="geometry" />
        </mxCell>
        <mxCell id="YlhhfSobjes1HJvtvpS9-193" value="" style="endArrow=none;html=1;rounded=0;dashed=1;dashPattern=1 2;exitX=1;exitY=0.5;exitDx=0;exitDy=0;entryX=0;entryY=0.5;entryDx=0;entryDy=0;" parent="1" source="YlhhfSobjes1HJvtvpS9-4" target="YlhhfSobjes1HJvtvpS9-192" edge="1">
          <mxGeometry relative="1" as="geometry">
            <mxPoint x="90" y="-5" as="sourcePoint" />
            <mxPoint x="410" y="-150" as="targetPoint" />
          </mxGeometry>
        </mxCell>
        <mxCell id="YlhhfSobjes1HJvtvpS9-194" value="M" style="resizable=0;html=1;whiteSpace=wrap;align=left;verticalAlign=bottom;" parent="YlhhfSobjes1HJvtvpS9-193" connectable="0" vertex="1">
          <mxGeometry x="-1" relative="1" as="geometry" />
        </mxCell>
        <mxCell id="YlhhfSobjes1HJvtvpS9-195" value="N" style="resizable=0;html=1;whiteSpace=wrap;align=right;verticalAlign=bottom;" parent="YlhhfSobjes1HJvtvpS9-193" connectable="0" vertex="1">
          <mxGeometry x="1" relative="1" as="geometry" />
        </mxCell>
        <mxCell id="YlhhfSobjes1HJvtvpS9-196" value="" style="endArrow=none;html=1;rounded=0;dashed=1;dashPattern=1 2;exitX=0;exitY=0.5;exitDx=0;exitDy=0;entryX=1;entryY=0.5;entryDx=0;entryDy=0;" parent="1" source="YlhhfSobjes1HJvtvpS9-3" target="YlhhfSobjes1HJvtvpS9-192" edge="1">
          <mxGeometry relative="1" as="geometry">
            <mxPoint x="840" y="-5" as="sourcePoint" />
            <mxPoint x="530" y="-10" as="targetPoint" />
          </mxGeometry>
        </mxCell>
        <mxCell id="YlhhfSobjes1HJvtvpS9-197" value="M" style="resizable=0;html=1;whiteSpace=wrap;align=left;verticalAlign=bottom;" parent="YlhhfSobjes1HJvtvpS9-196" connectable="0" vertex="1">
          <mxGeometry x="-1" relative="1" as="geometry" />
        </mxCell>
        <mxCell id="YlhhfSobjes1HJvtvpS9-198" value="N" style="resizable=0;html=1;whiteSpace=wrap;align=right;verticalAlign=bottom;" parent="YlhhfSobjes1HJvtvpS9-196" connectable="0" vertex="1">
          <mxGeometry x="1" relative="1" as="geometry" />
        </mxCell>
        <mxCell id="YlhhfSobjes1HJvtvpS9-200" value="Banyak barang ditmapilkan pada Customer" style="shape=note;size=20;whiteSpace=wrap;html=1;" parent="1" vertex="1">
          <mxGeometry x="180" y="-215" width="140" height="100" as="geometry" />
        </mxCell>
        <mxCell id="YlhhfSobjes1HJvtvpS9-205" value="Setiap kegiatan transfer pasti menghasilkan invoice" style="shape=note;size=20;whiteSpace=wrap;html=1;" parent="1" vertex="1">
          <mxGeometry x="399.99999999999994" y="520" width="120" height="80" as="geometry" />
        </mxCell>
        <mxCell id="YlhhfSobjes1HJvtvpS9-206" value="Invoice pembelian" style="ellipse;whiteSpace=wrap;html=1;align=center;" parent="1" vertex="1">
          <mxGeometry x="770.0699999999999" y="-290" width="100" height="40" as="geometry" />
        </mxCell>
        <mxCell id="YlhhfSobjes1HJvtvpS9-207" value="" style="endArrow=none;html=1;rounded=0;entryX=0.5;entryY=0;entryDx=0;entryDy=0;exitX=0.5;exitY=1;exitDx=0;exitDy=0;" parent="1" source="YlhhfSobjes1HJvtvpS9-206" target="YlhhfSobjes1HJvtvpS9-19" edge="1">
          <mxGeometry width="50" height="50" relative="1" as="geometry">
            <mxPoint x="950" y="-190" as="sourcePoint" />
            <mxPoint x="890" y="-105" as="targetPoint" />
          </mxGeometry>
        </mxCell>
        <mxCell id="YlhhfSobjes1HJvtvpS9-141" value="ID_Barang" style="ellipse;whiteSpace=wrap;html=1;align=center;fontStyle=4;" parent="1" vertex="1">
          <mxGeometry x="890.0699999999999" y="-290" width="100" height="40" as="geometry" />
        </mxCell>
        <mxCell id="YlhhfSobjes1HJvtvpS9-208" value="" style="endArrow=none;html=1;rounded=0;dashed=1;dashPattern=1 2;exitX=1;exitY=0.5;exitDx=0;exitDy=0;entryX=0;entryY=0.5;entryDx=0;entryDy=0;" parent="1" source="YlhhfSobjes1HJvtvpS9-42" target="YlhhfSobjes1HJvtvpS9-86" edge="1">
          <mxGeometry relative="1" as="geometry">
            <mxPoint x="520" y="480" as="sourcePoint" />
            <mxPoint x="730" y="640" as="targetPoint" />
          </mxGeometry>
        </mxCell>
        <mxCell id="YlhhfSobjes1HJvtvpS9-209" value="N" style="resizable=0;html=1;whiteSpace=wrap;align=right;verticalAlign=bottom;" parent="YlhhfSobjes1HJvtvpS9-208" connectable="0" vertex="1">
          <mxGeometry x="1" relative="1" as="geometry" />
        </mxCell>
        <mxCell id="YlhhfSobjes1HJvtvpS9-210" value="Amazon akan menerima invoice/catatan pengiriman" style="shape=note;size=20;whiteSpace=wrap;html=1;" parent="1" vertex="1">
          <mxGeometry x="600.07" y="740" width="140" height="100" as="geometry" />
        </mxCell>
        <mxCell id="YlhhfSobjes1HJvtvpS9-211" value="" style="endArrow=none;html=1;rounded=0;dashed=1;dashPattern=1 2;exitX=1;exitY=0.5;exitDx=0;exitDy=0;entryX=0;entryY=0.5;entryDx=0;entryDy=0;" parent="1" source="YlhhfSobjes1HJvtvpS9-42" target="YlhhfSobjes1HJvtvpS9-19" edge="1">
          <mxGeometry relative="1" as="geometry">
            <mxPoint x="520" y="480" as="sourcePoint" />
            <mxPoint x="830" y="890" as="targetPoint" />
          </mxGeometry>
        </mxCell>
        <mxCell id="YlhhfSobjes1HJvtvpS9-212" value="N" style="resizable=0;html=1;whiteSpace=wrap;align=right;verticalAlign=bottom;" parent="YlhhfSobjes1HJvtvpS9-211" connectable="0" vertex="1">
          <mxGeometry x="1" relative="1" as="geometry" />
        </mxCell>
        <mxCell id="YlhhfSobjes1HJvtvpS9-61" value="Proses transfer diterima oleh sistem bank" style="shape=note;size=20;whiteSpace=wrap;html=1;" parent="1" vertex="1">
          <mxGeometry x="540" y="160" width="120" height="80" as="geometry" />
        </mxCell>
        <mxCell id="YlhhfSobjes1HJvtvpS9-70" value="sistem bank mengirim uang ke rekening bank milik Amazon" style="shape=note;size=20;whiteSpace=wrap;html=1;" parent="1" vertex="1">
          <mxGeometry x="540" y="260" width="120" height="80" as="geometry" />
        </mxCell>
        <mxCell id="YlhhfSobjes1HJvtvpS9-47" value="Transfering" style="shape=rhombus;perimeter=rhombusPerimeter;whiteSpace=wrap;html=1;align=center;" parent="1" vertex="1">
          <mxGeometry x="640.0699999999999" y="70" width="120" height="60" as="geometry" />
        </mxCell>
        <mxCell id="YlhhfSobjes1HJvtvpS9-129" value="Harga" style="ellipse;whiteSpace=wrap;html=1;align=center;" parent="1" vertex="1">
          <mxGeometry x="770.0699999999999" y="-240" width="100" height="40" as="geometry" />
        </mxCell>
        <mxCell id="lQpLeHkaoHbpF2qCEwn6-1" value="ID_Barang" style="ellipse;whiteSpace=wrap;html=1;align=center;fontStyle=4;" parent="1" vertex="1">
          <mxGeometry x="40" y="-390" width="100" height="40" as="geometry" />
        </mxCell>
        <mxCell id="3709PdDCbaKsYcXdeZui-1" value="Nama : Muhammad Rizqy Alfy Firmansyah&lt;div&gt;NIM&amp;nbsp; &amp;nbsp; : 23051204043&lt;/div&gt;&lt;div&gt;Kelas : TIB 23&lt;/div&gt;" style="text;strokeColor=none;fillColor=none;html=1;fontSize=24;fontStyle=1;verticalAlign=middle;align=left;" vertex="1" parent="1">
          <mxGeometry x="-280" y="-500" width="100" height="40" as="geometry" />
        </mxCell>
        <mxCell id="3709PdDCbaKsYcXdeZui-2" style="edgeStyle=orthogonalEdgeStyle;rounded=0;orthogonalLoop=1;jettySize=auto;html=1;exitX=1;exitY=0.5;exitDx=0;exitDy=0;strokeColor=none;" edge="1" parent="1" source="3709PdDCbaKsYcXdeZui-1" target="3709PdDCbaKsYcXdeZui-1">
          <mxGeometry relative="1" as="geometry" />
        </mxCell>
      </root>
    </mxGraphModel>
  </diagram>
  <diagram id="ARLrb8OmHL-5VuLKFSpK" name="ERD Perpustakaan">
    <mxGraphModel dx="1640" dy="1605" grid="1" gridSize="10" guides="1" tooltips="1" connect="1" arrows="1" fold="1" page="1" pageScale="1" pageWidth="1169" pageHeight="827" math="0" shadow="0">
      <root>
        <mxCell id="0" />
        <mxCell id="1" parent="0" />
        <mxCell id="Wej8ORWZU7e7zhtMW4-o-1" value="" style="rounded=0;whiteSpace=wrap;html=1;" parent="1" vertex="1">
          <mxGeometry x="140" y="299" width="140" height="80" as="geometry" />
        </mxCell>
        <mxCell id="Wej8ORWZU7e7zhtMW4-o-2" value="" style="rounded=0;whiteSpace=wrap;html=1;" parent="1" vertex="1">
          <mxGeometry x="140" y="89" width="140" height="80" as="geometry" />
        </mxCell>
        <mxCell id="Wej8ORWZU7e7zhtMW4-o-3" value="Mahasiswa" style="rounded=0;whiteSpace=wrap;html=1;" parent="1" vertex="1">
          <mxGeometry x="150" y="99" width="120" height="60" as="geometry" />
        </mxCell>
        <mxCell id="Wej8ORWZU7e7zhtMW4-o-4" value="Dosen" style="rounded=0;whiteSpace=wrap;html=1;" parent="1" vertex="1">
          <mxGeometry x="150" y="309" width="120" height="60" as="geometry" />
        </mxCell>
        <mxCell id="Wej8ORWZU7e7zhtMW4-o-5" value="IDAnnggota" style="ellipse;whiteSpace=wrap;html=1;" parent="1" vertex="1">
          <mxGeometry x="50" y="199" width="90" height="60" as="geometry" />
        </mxCell>
        <mxCell id="Wej8ORWZU7e7zhtMW4-o-6" value="" style="endArrow=none;html=1;rounded=0;entryX=0.25;entryY=1;entryDx=0;entryDy=0;exitX=1;exitY=0.5;exitDx=0;exitDy=0;" parent="1" source="Wej8ORWZU7e7zhtMW4-o-5" target="Wej8ORWZU7e7zhtMW4-o-2" edge="1">
          <mxGeometry width="50" height="50" relative="1" as="geometry">
            <mxPoint x="150" y="229" as="sourcePoint" />
            <mxPoint x="510" y="169" as="targetPoint" />
          </mxGeometry>
        </mxCell>
        <mxCell id="Wej8ORWZU7e7zhtMW4-o-7" value="" style="endArrow=none;html=1;rounded=0;entryX=1;entryY=0.5;entryDx=0;entryDy=0;exitX=0.25;exitY=0;exitDx=0;exitDy=0;" parent="1" source="Wej8ORWZU7e7zhtMW4-o-1" target="Wej8ORWZU7e7zhtMW4-o-5" edge="1">
          <mxGeometry width="50" height="50" relative="1" as="geometry">
            <mxPoint x="160" y="239" as="sourcePoint" />
            <mxPoint x="160" y="169" as="targetPoint" />
          </mxGeometry>
        </mxCell>
        <mxCell id="Wej8ORWZU7e7zhtMW4-o-8" value="&lt;span style=&quot;font-weight: normal;&quot;&gt;Nama&lt;/span&gt;" style="ellipse;whiteSpace=wrap;html=1;fontStyle=1" parent="1" vertex="1">
          <mxGeometry x="170" y="199" width="80" height="60" as="geometry" />
        </mxCell>
        <mxCell id="Wej8ORWZU7e7zhtMW4-o-9" value="" style="endArrow=none;html=1;rounded=0;exitX=0;exitY=0.5;exitDx=0;exitDy=0;entryX=0.25;entryY=1;entryDx=0;entryDy=0;" parent="1" source="Wej8ORWZU7e7zhtMW4-o-8" target="Wej8ORWZU7e7zhtMW4-o-2" edge="1">
          <mxGeometry width="50" height="50" relative="1" as="geometry">
            <mxPoint x="460" y="219" as="sourcePoint" />
            <mxPoint x="510" y="169" as="targetPoint" />
          </mxGeometry>
        </mxCell>
        <mxCell id="Wej8ORWZU7e7zhtMW4-o-10" value="" style="endArrow=none;html=1;rounded=0;exitX=0;exitY=0.5;exitDx=0;exitDy=0;entryX=0.25;entryY=0;entryDx=0;entryDy=0;" parent="1" source="Wej8ORWZU7e7zhtMW4-o-8" target="Wej8ORWZU7e7zhtMW4-o-1" edge="1">
          <mxGeometry width="50" height="50" relative="1" as="geometry">
            <mxPoint x="220" y="209" as="sourcePoint" />
            <mxPoint x="160" y="169" as="targetPoint" />
          </mxGeometry>
        </mxCell>
        <mxCell id="Wej8ORWZU7e7zhtMW4-o-11" value="" style="endArrow=none;html=1;rounded=0;entryX=0;entryY=1;entryDx=0;entryDy=0;exitX=0.5;exitY=0;exitDx=0;exitDy=0;" parent="1" source="Wej8ORWZU7e7zhtMW4-o-1" target="Wej8ORWZU7e7zhtMW4-o-50" edge="1">
          <mxGeometry width="50" height="50" relative="1" as="geometry">
            <mxPoint x="460" y="219" as="sourcePoint" />
            <mxPoint x="510" y="169" as="targetPoint" />
          </mxGeometry>
        </mxCell>
        <mxCell id="Wej8ORWZU7e7zhtMW4-o-12" value="" style="endArrow=none;html=1;rounded=0;entryX=0;entryY=0;entryDx=0;entryDy=0;exitX=0.5;exitY=1;exitDx=0;exitDy=0;" parent="1" source="Wej8ORWZU7e7zhtMW4-o-2" target="Wej8ORWZU7e7zhtMW4-o-50" edge="1">
          <mxGeometry width="50" height="50" relative="1" as="geometry">
            <mxPoint x="340" y="129" as="sourcePoint" />
            <mxPoint x="291" y="260" as="targetPoint" />
          </mxGeometry>
        </mxCell>
        <mxCell id="Wej8ORWZU7e7zhtMW4-o-13" value="Anggota" style="rounded=0;whiteSpace=wrap;html=1;" parent="1" vertex="1">
          <mxGeometry x="700" y="159" width="120" height="60" as="geometry" />
        </mxCell>
        <mxCell id="Wej8ORWZU7e7zhtMW4-o-14" value="" style="endArrow=none;html=1;rounded=0;exitX=0;exitY=0.5;exitDx=0;exitDy=0;entryX=1;entryY=1;entryDx=0;entryDy=0;" parent="1" source="Wej8ORWZU7e7zhtMW4-o-57" target="Wej8ORWZU7e7zhtMW4-o-2" edge="1">
          <mxGeometry width="50" height="50" relative="1" as="geometry">
            <mxPoint x="460" y="219" as="sourcePoint" />
            <mxPoint x="510" y="169" as="targetPoint" />
          </mxGeometry>
        </mxCell>
        <mxCell id="Wej8ORWZU7e7zhtMW4-o-15" value="" style="endArrow=none;html=1;rounded=0;exitX=0;exitY=0.5;exitDx=0;exitDy=0;entryX=1;entryY=0;entryDx=0;entryDy=0;" parent="1" source="Wej8ORWZU7e7zhtMW4-o-57" target="Wej8ORWZU7e7zhtMW4-o-1" edge="1">
          <mxGeometry width="50" height="50" relative="1" as="geometry">
            <mxPoint x="390" y="239" as="sourcePoint" />
            <mxPoint x="280" y="169" as="targetPoint" />
          </mxGeometry>
        </mxCell>
        <mxCell id="Wej8ORWZU7e7zhtMW4-o-16" value="&lt;span style=&quot;font-weight: normal;&quot;&gt;Status&lt;/span&gt;" style="ellipse;whiteSpace=wrap;html=1;fontStyle=1" parent="1" vertex="1">
          <mxGeometry x="720" y="79" width="80" height="60" as="geometry" />
        </mxCell>
        <mxCell id="Wej8ORWZU7e7zhtMW4-o-17" value="" style="endArrow=none;html=1;rounded=0;exitX=0.5;exitY=1;exitDx=0;exitDy=0;entryX=0.5;entryY=0;entryDx=0;entryDy=0;" parent="1" source="Wej8ORWZU7e7zhtMW4-o-16" target="Wej8ORWZU7e7zhtMW4-o-13" edge="1">
          <mxGeometry width="50" height="50" relative="1" as="geometry">
            <mxPoint x="1170" y="69" as="sourcePoint" />
            <mxPoint x="800" y="59" as="targetPoint" />
          </mxGeometry>
        </mxCell>
        <mxCell id="Wej8ORWZU7e7zhtMW4-o-18" value="Buku" style="rounded=0;whiteSpace=wrap;html=1;" parent="1" vertex="1">
          <mxGeometry x="200" y="499" width="120" height="60" as="geometry" />
        </mxCell>
        <mxCell id="Wej8ORWZU7e7zhtMW4-o-19" value="&lt;span style=&quot;font-weight: normal;&quot;&gt;Judul&lt;/span&gt;" style="ellipse;whiteSpace=wrap;html=1;fontStyle=1" parent="1" vertex="1">
          <mxGeometry x="80" y="499" width="80" height="60" as="geometry" />
        </mxCell>
        <mxCell id="Wej8ORWZU7e7zhtMW4-o-20" value="" style="endArrow=none;html=1;rounded=0;exitX=1;exitY=0.5;exitDx=0;exitDy=0;entryX=0;entryY=0.5;entryDx=0;entryDy=0;" parent="1" source="Wej8ORWZU7e7zhtMW4-o-19" target="Wej8ORWZU7e7zhtMW4-o-18" edge="1">
          <mxGeometry width="50" height="50" relative="1" as="geometry">
            <mxPoint x="450" y="409" as="sourcePoint" />
            <mxPoint x="500" y="359" as="targetPoint" />
            <Array as="points">
              <mxPoint x="190" y="529" />
            </Array>
          </mxGeometry>
        </mxCell>
        <mxCell id="Wej8ORWZU7e7zhtMW4-o-21" value="&lt;span style=&quot;font-weight: normal;&quot;&gt;IDBuku&lt;/span&gt;" style="ellipse;whiteSpace=wrap;html=1;fontStyle=1" parent="1" vertex="1">
          <mxGeometry x="80" y="429" width="80" height="60" as="geometry" />
        </mxCell>
        <mxCell id="Wej8ORWZU7e7zhtMW4-o-22" value="" style="endArrow=none;html=1;rounded=0;exitX=1;exitY=0.5;exitDx=0;exitDy=0;entryX=0;entryY=0.5;entryDx=0;entryDy=0;" parent="1" source="Wej8ORWZU7e7zhtMW4-o-21" target="Wej8ORWZU7e7zhtMW4-o-18" edge="1">
          <mxGeometry width="50" height="50" relative="1" as="geometry">
            <mxPoint x="170" y="609" as="sourcePoint" />
            <mxPoint x="210" y="539" as="targetPoint" />
            <Array as="points" />
          </mxGeometry>
        </mxCell>
        <mxCell id="Wej8ORWZU7e7zhtMW4-o-23" value="" style="endArrow=classic;html=1;rounded=0;exitX=1;exitY=0;exitDx=0;exitDy=0;entryX=0;entryY=1;entryDx=0;entryDy=0;" parent="1" source="Wej8ORWZU7e7zhtMW4-o-45" target="Wej8ORWZU7e7zhtMW4-o-18" edge="1">
          <mxGeometry width="50" height="50" relative="1" as="geometry">
            <mxPoint x="180" y="589" as="sourcePoint" />
            <mxPoint x="500" y="479" as="targetPoint" />
          </mxGeometry>
        </mxCell>
        <mxCell id="Wej8ORWZU7e7zhtMW4-o-24" value="" style="endArrow=classic;html=1;rounded=0;exitX=0;exitY=0;exitDx=0;exitDy=0;entryX=0;entryY=1;entryDx=0;entryDy=0;" parent="1" source="Wej8ORWZU7e7zhtMW4-o-46" target="Wej8ORWZU7e7zhtMW4-o-18" edge="1">
          <mxGeometry width="50" height="50" relative="1" as="geometry">
            <mxPoint x="220" y="589" as="sourcePoint" />
            <mxPoint x="210" y="569" as="targetPoint" />
          </mxGeometry>
        </mxCell>
        <mxCell id="Wej8ORWZU7e7zhtMW4-o-25" value="Pegawai" style="rounded=0;whiteSpace=wrap;html=1;" parent="1" vertex="1">
          <mxGeometry x="810" y="369" width="120" height="60" as="geometry" />
        </mxCell>
        <mxCell id="Wej8ORWZU7e7zhtMW4-o-26" value="&lt;span style=&quot;font-weight: normal;&quot;&gt;IDPegawai&lt;/span&gt;" style="ellipse;whiteSpace=wrap;html=1;fontStyle=1" parent="1" vertex="1">
          <mxGeometry x="780" y="299" width="80" height="60" as="geometry" />
        </mxCell>
        <mxCell id="Wej8ORWZU7e7zhtMW4-o-27" value="&lt;span style=&quot;font-weight: normal;&quot;&gt;Nama&lt;/span&gt;" style="ellipse;whiteSpace=wrap;html=1;fontStyle=1" parent="1" vertex="1">
          <mxGeometry x="880" y="299" width="80" height="60" as="geometry" />
        </mxCell>
        <mxCell id="Wej8ORWZU7e7zhtMW4-o-28" value="&lt;span style=&quot;font-weight: normal;&quot;&gt;Alamat&lt;/span&gt;" style="ellipse;whiteSpace=wrap;html=1;fontStyle=1" parent="1" vertex="1">
          <mxGeometry x="780" y="439" width="80" height="60" as="geometry" />
        </mxCell>
        <mxCell id="Wej8ORWZU7e7zhtMW4-o-29" value="&lt;span style=&quot;font-weight: normal;&quot;&gt;No Telpon&lt;/span&gt;" style="ellipse;whiteSpace=wrap;html=1;fontStyle=1" parent="1" vertex="1">
          <mxGeometry x="880" y="439" width="80" height="60" as="geometry" />
        </mxCell>
        <mxCell id="Wej8ORWZU7e7zhtMW4-o-30" value="" style="endArrow=none;html=1;rounded=0;exitX=1;exitY=0;exitDx=0;exitDy=0;entryX=0.5;entryY=1;entryDx=0;entryDy=0;" parent="1" source="Wej8ORWZU7e7zhtMW4-o-28" target="Wej8ORWZU7e7zhtMW4-o-25" edge="1">
          <mxGeometry width="50" height="50" relative="1" as="geometry">
            <mxPoint x="850" y="419" as="sourcePoint" />
            <mxPoint x="870" y="419" as="targetPoint" />
          </mxGeometry>
        </mxCell>
        <mxCell id="Wej8ORWZU7e7zhtMW4-o-31" value="" style="endArrow=none;html=1;rounded=0;exitX=0;exitY=0;exitDx=0;exitDy=0;entryX=0.5;entryY=1;entryDx=0;entryDy=0;" parent="1" source="Wej8ORWZU7e7zhtMW4-o-29" target="Wej8ORWZU7e7zhtMW4-o-25" edge="1">
          <mxGeometry width="50" height="50" relative="1" as="geometry">
            <mxPoint x="859" y="458" as="sourcePoint" />
            <mxPoint x="880" y="439" as="targetPoint" />
            <Array as="points" />
          </mxGeometry>
        </mxCell>
        <mxCell id="Wej8ORWZU7e7zhtMW4-o-32" value="" style="endArrow=none;html=1;rounded=0;exitX=0.5;exitY=0;exitDx=0;exitDy=0;entryX=0;entryY=1;entryDx=0;entryDy=0;" parent="1" source="Wej8ORWZU7e7zhtMW4-o-25" target="Wej8ORWZU7e7zhtMW4-o-27" edge="1">
          <mxGeometry width="50" height="50" relative="1" as="geometry">
            <mxPoint x="859" y="458" as="sourcePoint" />
            <mxPoint x="880" y="439" as="targetPoint" />
          </mxGeometry>
        </mxCell>
        <mxCell id="Wej8ORWZU7e7zhtMW4-o-33" value="" style="endArrow=none;html=1;rounded=0;exitX=0.5;exitY=0;exitDx=0;exitDy=0;entryX=1;entryY=1;entryDx=0;entryDy=0;" parent="1" source="Wej8ORWZU7e7zhtMW4-o-25" target="Wej8ORWZU7e7zhtMW4-o-26" edge="1">
          <mxGeometry width="50" height="50" relative="1" as="geometry">
            <mxPoint x="880" y="379" as="sourcePoint" />
            <mxPoint x="901" y="360" as="targetPoint" />
          </mxGeometry>
        </mxCell>
        <mxCell id="Wej8ORWZU7e7zhtMW4-o-34" value="Meminjam" style="rhombus;whiteSpace=wrap;html=1;" parent="1" vertex="1">
          <mxGeometry x="590" y="459" width="80" height="80" as="geometry" />
        </mxCell>
        <mxCell id="Wej8ORWZU7e7zhtMW4-o-35" value="Melayani" style="rhombus;whiteSpace=wrap;html=1;" parent="1" vertex="1">
          <mxGeometry x="580" y="279" width="80" height="80" as="geometry" />
        </mxCell>
        <mxCell id="Wej8ORWZU7e7zhtMW4-o-36" value="&lt;span style=&quot;font-weight: normal;&quot;&gt;No_Reg&lt;/span&gt;" style="ellipse;whiteSpace=wrap;html=1;fontStyle=1" parent="1" vertex="1">
          <mxGeometry x="360" y="350" width="80" height="60" as="geometry" />
        </mxCell>
        <mxCell id="Wej8ORWZU7e7zhtMW4-o-37" value="&lt;span style=&quot;font-weight: normal;&quot;&gt;Tanggal_Reg&lt;/span&gt;" style="ellipse;whiteSpace=wrap;html=1;fontStyle=1" parent="1" vertex="1">
          <mxGeometry x="360" y="414" width="80" height="60" as="geometry" />
        </mxCell>
        <mxCell id="Wej8ORWZU7e7zhtMW4-o-38" value="" style="endArrow=none;html=1;rounded=0;exitX=1;exitY=0.5;exitDx=0;exitDy=0;entryX=0;entryY=1;entryDx=0;entryDy=0;" parent="1" source="Wej8ORWZU7e7zhtMW4-o-36" target="Wej8ORWZU7e7zhtMW4-o-35" edge="1">
          <mxGeometry width="50" height="50" relative="1" as="geometry">
            <mxPoint x="450" y="409" as="sourcePoint" />
            <mxPoint x="500" y="359" as="targetPoint" />
          </mxGeometry>
        </mxCell>
        <mxCell id="Wej8ORWZU7e7zhtMW4-o-39" value="" style="endArrow=none;html=1;rounded=0;exitX=1;exitY=0.5;exitDx=0;exitDy=0;entryX=0;entryY=1;entryDx=0;entryDy=0;" parent="1" source="Wej8ORWZU7e7zhtMW4-o-37" target="Wej8ORWZU7e7zhtMW4-o-35" edge="1">
          <mxGeometry width="50" height="50" relative="1" as="geometry">
            <mxPoint x="450" y="409" as="sourcePoint" />
            <mxPoint x="550" y="389" as="targetPoint" />
          </mxGeometry>
        </mxCell>
        <mxCell id="Wej8ORWZU7e7zhtMW4-o-40" value="Mengelola" style="rhombus;whiteSpace=wrap;html=1;" parent="1" vertex="1">
          <mxGeometry x="490" y="669" width="80" height="80" as="geometry" />
        </mxCell>
        <mxCell id="Wej8ORWZU7e7zhtMW4-o-41" value="&lt;span style=&quot;font-weight: normal;&quot;&gt;Tanggal_Entry&lt;/span&gt;" style="ellipse;whiteSpace=wrap;html=1;fontStyle=1" parent="1" vertex="1">
          <mxGeometry x="630" y="679" width="80" height="60" as="geometry" />
        </mxCell>
        <mxCell id="Wej8ORWZU7e7zhtMW4-o-42" value="" style="endArrow=none;html=1;rounded=0;exitX=1;exitY=0.5;exitDx=0;exitDy=0;entryX=0;entryY=0.5;entryDx=0;entryDy=0;" parent="1" source="Wej8ORWZU7e7zhtMW4-o-40" target="Wej8ORWZU7e7zhtMW4-o-41" edge="1">
          <mxGeometry width="50" height="50" relative="1" as="geometry">
            <mxPoint x="480" y="554" as="sourcePoint" />
            <mxPoint x="530" y="454" as="targetPoint" />
          </mxGeometry>
        </mxCell>
        <mxCell id="Wej8ORWZU7e7zhtMW4-o-43" value="&lt;span style=&quot;font-weight: 400;&quot;&gt;Tgl_Kembali&lt;/span&gt;&lt;span style=&quot;background-color: initial; text-wrap: nowrap; color: rgba(0, 0, 0, 0); font-family: monospace; font-size: 0px; font-weight: 400; text-align: start;&quot;&gt;%3CmxGraphModel%3E%3Croot%3E%3CmxCell%20id%3D%220%22%2F%3E%3CmxCell%20id%3D%221%22%20parent%3D%220%22%2F%3E%3CmxCell%20id%3D%222%22%20value%3D%22%26lt%3Bspan%20style%3D%26quot%3Bfont-weight%3A%20normal%3B%26quot%3B%26gt%3BTanggal_Reg%26lt%3B%2Fspan%26gt%3B%22%20style%3D%22ellipse%3BwhiteSpace%3Dwrap%3Bhtml%3D1%3BfontStyle%3D1%22%20vertex%3D%221%22%20parent%3D%221%22%3E%3CmxGeometry%20x%3D%22320%22%20y%3D%22350%22%20width%3D%2280%22%20height%3D%2260%22%20as%3D%22geometry%22%2F%3E%3C%2FmxCell%3E%3C%2Froot%3E%3C%2FmxGraphModel&lt;/span&gt;&lt;span style=&quot;background-color: initial; text-wrap: nowrap; color: rgba(0, 0, 0, 0); font-family: monospace; font-size: 0px; font-weight: 400; text-align: start;&quot;&gt;3CmxGraphModel%3E%3Croot%3E%3CmxCell%20id%3D%220%22%2F%3E%3CmxCell%20id%3D%221%22%20parent%3D%220%22%2F%3E%3CmxCell%20id%3D%222%22%20value%3D%22%26lt%3Bspan%20style%3D%26quot%3Bfont-weight%3A%20normal%3B%26quot%3B%26gt%3BTanggal_Reg%26lt%3B%2Fspan%26gt%3B%22%20style%3D%22ellipse%3BwhiteSpace%3Dwrap%3Bhtml%3D1%3BfontStyle%3D1%22%20vertex%3D%221%22%20parent%3D%221%22%3E%3CmxGeometry%20x%3D%22320%22%20y%3D%22350%22%20width%3D%2280%22%20height%3D%2260%22%20as%3D%22geometry%22%2F%3E%3C%2FmxCell%3E%3C%2Froot%3E%3C%2FmxGraphModel%3E&lt;/span&gt;" style="ellipse;whiteSpace=wrap;html=1;fontStyle=1" parent="1" vertex="1">
          <mxGeometry x="460" y="439" width="80" height="60" as="geometry" />
        </mxCell>
        <mxCell id="Wej8ORWZU7e7zhtMW4-o-44" value="&lt;span style=&quot;font-weight: 400;&quot;&gt;Jmlh_Buku&lt;/span&gt;" style="ellipse;whiteSpace=wrap;html=1;fontStyle=1" parent="1" vertex="1">
          <mxGeometry x="440" y="579" width="80" height="60" as="geometry" />
        </mxCell>
        <mxCell id="Wej8ORWZU7e7zhtMW4-o-45" value="Pengarang" style="ellipse;shape=doubleEllipse;margin=3;whiteSpace=wrap;html=1;align=center;" parent="1" vertex="1">
          <mxGeometry x="80" y="589" width="100" height="40" as="geometry" />
        </mxCell>
        <mxCell id="Wej8ORWZU7e7zhtMW4-o-46" value="&lt;span style=&quot;font-weight: normal;&quot;&gt;Penerbit&lt;/span&gt;" style="ellipse;whiteSpace=wrap;html=1;fontStyle=1" parent="1" vertex="1">
          <mxGeometry x="210" y="579" width="80" height="60" as="geometry" />
        </mxCell>
        <mxCell id="Wej8ORWZU7e7zhtMW4-o-47" value="" style="endArrow=none;html=1;rounded=0;exitX=1;exitY=0.5;exitDx=0;exitDy=0;entryX=0;entryY=0.5;entryDx=0;entryDy=0;" parent="1" source="Wej8ORWZU7e7zhtMW4-o-43" target="Wej8ORWZU7e7zhtMW4-o-34" edge="1">
          <mxGeometry width="50" height="50" relative="1" as="geometry">
            <mxPoint x="400" y="519" as="sourcePoint" />
            <mxPoint x="450" y="419" as="targetPoint" />
          </mxGeometry>
        </mxCell>
        <mxCell id="Wej8ORWZU7e7zhtMW4-o-48" value="" style="endArrow=none;html=1;rounded=0;exitX=1;exitY=0.5;exitDx=0;exitDy=0;entryX=0;entryY=0.5;entryDx=0;entryDy=0;" parent="1" source="Wej8ORWZU7e7zhtMW4-o-69" target="Wej8ORWZU7e7zhtMW4-o-34" edge="1">
          <mxGeometry width="50" height="50" relative="1" as="geometry">
            <mxPoint x="505" y="479" as="sourcePoint" />
            <mxPoint x="520" y="469" as="targetPoint" />
          </mxGeometry>
        </mxCell>
        <mxCell id="Wej8ORWZU7e7zhtMW4-o-49" value="" style="endArrow=none;html=1;rounded=0;exitX=1;exitY=0.5;exitDx=0;exitDy=0;entryX=0;entryY=0.5;entryDx=0;entryDy=0;" parent="1" source="Wej8ORWZU7e7zhtMW4-o-44" target="Wej8ORWZU7e7zhtMW4-o-34" edge="1">
          <mxGeometry width="50" height="50" relative="1" as="geometry">
            <mxPoint x="500" y="549" as="sourcePoint" />
            <mxPoint x="520" y="469" as="targetPoint" />
          </mxGeometry>
        </mxCell>
        <mxCell id="Wej8ORWZU7e7zhtMW4-o-50" value="&lt;span style=&quot;font-weight: normal;&quot;&gt;Alamat&lt;/span&gt;" style="ellipse;whiteSpace=wrap;html=1;fontStyle=1" parent="1" vertex="1">
          <mxGeometry x="270" y="199" width="80" height="60" as="geometry" />
        </mxCell>
        <mxCell id="Wej8ORWZU7e7zhtMW4-o-51" value="" style="endArrow=none;html=1;rounded=0;entryX=1;entryY=0.5;entryDx=0;entryDy=0;exitX=0;exitY=0.5;exitDx=0;exitDy=0;" parent="1" source="Wej8ORWZU7e7zhtMW4-o-13" target="Wej8ORWZU7e7zhtMW4-o-1" edge="1">
          <mxGeometry relative="1" as="geometry">
            <mxPoint x="460" y="220" as="sourcePoint" />
            <mxPoint x="620" y="220" as="targetPoint" />
          </mxGeometry>
        </mxCell>
        <mxCell id="Wej8ORWZU7e7zhtMW4-o-52" value="N" style="resizable=0;html=1;whiteSpace=wrap;align=right;verticalAlign=bottom;" parent="Wej8ORWZU7e7zhtMW4-o-51" connectable="0" vertex="1">
          <mxGeometry x="1" relative="1" as="geometry" />
        </mxCell>
        <mxCell id="Wej8ORWZU7e7zhtMW4-o-53" value="" style="endArrow=none;html=1;rounded=0;entryX=1;entryY=0.5;entryDx=0;entryDy=0;exitX=0;exitY=0.5;exitDx=0;exitDy=0;" parent="1" source="Wej8ORWZU7e7zhtMW4-o-13" target="Wej8ORWZU7e7zhtMW4-o-2" edge="1">
          <mxGeometry relative="1" as="geometry">
            <mxPoint x="710" y="184" as="sourcePoint" />
            <mxPoint x="290" y="349" as="targetPoint" />
          </mxGeometry>
        </mxCell>
        <mxCell id="Wej8ORWZU7e7zhtMW4-o-54" value="N" style="resizable=0;html=1;whiteSpace=wrap;align=right;verticalAlign=bottom;" parent="Wej8ORWZU7e7zhtMW4-o-53" connectable="0" vertex="1">
          <mxGeometry x="1" relative="1" as="geometry" />
        </mxCell>
        <mxCell id="Wej8ORWZU7e7zhtMW4-o-55" value="" style="endArrow=none;html=1;rounded=0;entryX=1;entryY=0.5;entryDx=0;entryDy=0;exitX=0;exitY=0;exitDx=0;exitDy=0;" parent="1" source="Wej8ORWZU7e7zhtMW4-o-35" target="Wej8ORWZU7e7zhtMW4-o-2" edge="1">
          <mxGeometry relative="1" as="geometry">
            <mxPoint x="710" y="199" as="sourcePoint" />
            <mxPoint x="290" y="139" as="targetPoint" />
          </mxGeometry>
        </mxCell>
        <mxCell id="Wej8ORWZU7e7zhtMW4-o-56" value="N" style="resizable=0;html=1;whiteSpace=wrap;align=right;verticalAlign=bottom;" parent="Wej8ORWZU7e7zhtMW4-o-55" connectable="0" vertex="1">
          <mxGeometry x="1" relative="1" as="geometry" />
        </mxCell>
        <mxCell id="Wej8ORWZU7e7zhtMW4-o-57" value="&lt;span style=&quot;font-weight: normal;&quot;&gt;No Telpon&lt;/span&gt;" style="ellipse;whiteSpace=wrap;html=1;fontStyle=1" parent="1" vertex="1">
          <mxGeometry x="380" y="199" width="80" height="60" as="geometry" />
        </mxCell>
        <mxCell id="Wej8ORWZU7e7zhtMW4-o-58" value="" style="endArrow=none;html=1;rounded=0;entryX=1;entryY=0.5;entryDx=0;entryDy=0;exitX=0;exitY=0;exitDx=0;exitDy=0;" parent="1" source="Wej8ORWZU7e7zhtMW4-o-35" target="Wej8ORWZU7e7zhtMW4-o-1" edge="1">
          <mxGeometry relative="1" as="geometry">
            <mxPoint x="610" y="309" as="sourcePoint" />
            <mxPoint x="290" y="139" as="targetPoint" />
          </mxGeometry>
        </mxCell>
        <mxCell id="Wej8ORWZU7e7zhtMW4-o-59" value="N" style="resizable=0;html=1;whiteSpace=wrap;align=right;verticalAlign=bottom;" parent="Wej8ORWZU7e7zhtMW4-o-58" connectable="0" vertex="1">
          <mxGeometry x="1" relative="1" as="geometry" />
        </mxCell>
        <mxCell id="Wej8ORWZU7e7zhtMW4-o-60" value="" style="endArrow=none;html=1;rounded=0;exitX=1;exitY=0;exitDx=0;exitDy=0;entryX=0;entryY=1;entryDx=0;entryDy=0;" parent="1" source="Wej8ORWZU7e7zhtMW4-o-35" target="Wej8ORWZU7e7zhtMW4-o-13" edge="1">
          <mxGeometry relative="1" as="geometry">
            <mxPoint x="460" y="220" as="sourcePoint" />
            <mxPoint x="620" y="220" as="targetPoint" />
          </mxGeometry>
        </mxCell>
        <mxCell id="Wej8ORWZU7e7zhtMW4-o-61" value="" style="endArrow=none;html=1;rounded=0;entryX=1;entryY=1;entryDx=0;entryDy=0;exitX=0;exitY=0.5;exitDx=0;exitDy=0;" parent="1" source="Wej8ORWZU7e7zhtMW4-o-25" target="Wej8ORWZU7e7zhtMW4-o-35" edge="1">
          <mxGeometry relative="1" as="geometry">
            <mxPoint x="950" y="379" as="sourcePoint" />
            <mxPoint x="630" y="419" as="targetPoint" />
          </mxGeometry>
        </mxCell>
        <mxCell id="Wej8ORWZU7e7zhtMW4-o-62" value="N" style="resizable=0;html=1;whiteSpace=wrap;align=right;verticalAlign=bottom;" parent="Wej8ORWZU7e7zhtMW4-o-61" connectable="0" vertex="1">
          <mxGeometry x="1" relative="1" as="geometry" />
        </mxCell>
        <mxCell id="Wej8ORWZU7e7zhtMW4-o-63" value="" style="endArrow=none;html=1;rounded=0;entryX=0.5;entryY=1;entryDx=0;entryDy=0;exitX=0.5;exitY=0;exitDx=0;exitDy=0;" parent="1" source="Wej8ORWZU7e7zhtMW4-o-34" target="Wej8ORWZU7e7zhtMW4-o-13" edge="1">
          <mxGeometry relative="1" as="geometry">
            <mxPoint x="820" y="409" as="sourcePoint" />
            <mxPoint x="650" y="349" as="targetPoint" />
          </mxGeometry>
        </mxCell>
        <mxCell id="Wej8ORWZU7e7zhtMW4-o-64" value="N" style="resizable=0;html=1;whiteSpace=wrap;align=right;verticalAlign=bottom;" parent="Wej8ORWZU7e7zhtMW4-o-63" connectable="0" vertex="1">
          <mxGeometry x="1" relative="1" as="geometry" />
        </mxCell>
        <mxCell id="Wej8ORWZU7e7zhtMW4-o-65" value="" style="endArrow=none;html=1;rounded=0;entryX=1;entryY=0.5;entryDx=0;entryDy=0;exitX=0;exitY=0.5;exitDx=0;exitDy=0;" parent="1" source="Wej8ORWZU7e7zhtMW4-o-25" target="Wej8ORWZU7e7zhtMW4-o-34" edge="1">
          <mxGeometry relative="1" as="geometry">
            <mxPoint x="640" y="469" as="sourcePoint" />
            <mxPoint x="770" y="229" as="targetPoint" />
          </mxGeometry>
        </mxCell>
        <mxCell id="Wej8ORWZU7e7zhtMW4-o-66" value="N" style="resizable=0;html=1;whiteSpace=wrap;align=right;verticalAlign=bottom;" parent="Wej8ORWZU7e7zhtMW4-o-65" connectable="0" vertex="1">
          <mxGeometry x="1" relative="1" as="geometry" />
        </mxCell>
        <mxCell id="Wej8ORWZU7e7zhtMW4-o-67" value="" style="endArrow=none;html=1;rounded=0;entryX=1;entryY=0.5;entryDx=0;entryDy=0;exitX=0;exitY=0.5;exitDx=0;exitDy=0;" parent="1" source="Wej8ORWZU7e7zhtMW4-o-34" target="Wej8ORWZU7e7zhtMW4-o-18" edge="1">
          <mxGeometry relative="1" as="geometry">
            <mxPoint x="640" y="469" as="sourcePoint" />
            <mxPoint x="770" y="229" as="targetPoint" />
          </mxGeometry>
        </mxCell>
        <mxCell id="Wej8ORWZU7e7zhtMW4-o-68" value="N" style="resizable=0;html=1;whiteSpace=wrap;align=right;verticalAlign=bottom;" parent="Wej8ORWZU7e7zhtMW4-o-67" connectable="0" vertex="1">
          <mxGeometry x="1" relative="1" as="geometry" />
        </mxCell>
        <mxCell id="Wej8ORWZU7e7zhtMW4-o-69" value="&lt;span style=&quot;font-weight: 400;&quot;&gt;Tgl_P&lt;/span&gt;&lt;span style=&quot;color: rgba(0, 0, 0, 0); font-family: monospace; font-size: 0px; font-weight: 400; text-align: start; text-wrap: nowrap;&quot;&gt;%3CmxGraphModel%3E%3Croot%3E%3CmxCell%20id%3D%220%22%2F%3E%3CmxCell%20id%3D%221%22%20parent%3D%220%22%2F%3E%3CmxCell%20id%3D%222%22%20value%3D%22%26lt%3Bspan%20style%3D%26quot%3Bfont-weight%3A%20normal%3B%26quot%3B%26gt%3BTanggal_Reg%26lt%3B%2Fspan%26gt%3B%22%20style%3D%22ellipse%3BwhiteSpace%3Dwrap%3Bhtml%3D1%3BfontStyle%3D1%22%20vertex%3D%221%22%20parent%3D%221%22%3E%3CmxGeometry%20x%3D%22320%22%20y%3D%22350%22%20width%3D%2280%22%20height%3D%2260%22%20as%3D%22geometry%22%2F%3E%3C%2FmxCell%3E%3C%2Froot%3E%3C%2FmxGraphModel%3E&lt;/span&gt;&lt;span style=&quot;font-weight: 400;&quot;&gt;injam&lt;/span&gt;&lt;span style=&quot;color: rgba(0, 0, 0, 0); font-family: monospace; font-size: 0px; font-weight: 400; text-align: start; text-wrap: nowrap;&quot;&gt;%3CmxGraphModel%3E%3Croot%3E%3CmxCell%20id%3D%220%22%2F%3E%3CmxCell%20id%3D%221%22%20parent%3D%220%22%2F%3E%3CmxCell%20id%3D%222%22%20value%3D%22%26lt%3Bspan%20style%3D%26quot%3Bfont-weight%3A%20normal%3B%26quot%3B%26gt%3BTanggal_Reg%26lt%3B%2Fspan%26gt%3B%22%20style%3D%22ellipse%3BwhiteSpace%3Dwrap%3Bhtml%3D1%3BfontStyle%3D1%22%20vertex%3D%221%22%20parent%3D%221%22%3E%3CmxGeometry%20x%3D%22320%22%20y%3D%22350%22%20width%3D%2280%22%20height%3D%2260%22%20as%3D%22geometry%22%2F%3E%3C%2FmxCell%3E%3C%2Froot%3E%3C%2FmxGraphModel%3E&lt;/span&gt;" style="ellipse;whiteSpace=wrap;html=1;fontStyle=1" parent="1" vertex="1">
          <mxGeometry x="430" y="509" width="80" height="60" as="geometry" />
        </mxCell>
        <mxCell id="Wej8ORWZU7e7zhtMW4-o-70" value="" style="endArrow=none;html=1;rounded=0;entryX=1;entryY=0;entryDx=0;entryDy=0;exitX=0;exitY=0.5;exitDx=0;exitDy=0;" parent="1" source="Wej8ORWZU7e7zhtMW4-o-25" target="Wej8ORWZU7e7zhtMW4-o-40" edge="1">
          <mxGeometry relative="1" as="geometry">
            <mxPoint x="820" y="409" as="sourcePoint" />
            <mxPoint x="680" y="509" as="targetPoint" />
          </mxGeometry>
        </mxCell>
        <mxCell id="Wej8ORWZU7e7zhtMW4-o-71" value="N" style="resizable=0;html=1;whiteSpace=wrap;align=right;verticalAlign=bottom;" parent="Wej8ORWZU7e7zhtMW4-o-70" connectable="0" vertex="1">
          <mxGeometry x="1" relative="1" as="geometry" />
        </mxCell>
        <mxCell id="Wej8ORWZU7e7zhtMW4-o-72" value="" style="endArrow=none;html=1;rounded=0;entryX=1;entryY=0.5;entryDx=0;entryDy=0;exitX=0;exitY=0.5;exitDx=0;exitDy=0;" parent="1" source="Wej8ORWZU7e7zhtMW4-o-40" target="Wej8ORWZU7e7zhtMW4-o-18" edge="1">
          <mxGeometry relative="1" as="geometry">
            <mxPoint x="820" y="409" as="sourcePoint" />
            <mxPoint x="560" y="699" as="targetPoint" />
          </mxGeometry>
        </mxCell>
        <mxCell id="Wej8ORWZU7e7zhtMW4-o-73" value="N" style="resizable=0;html=1;whiteSpace=wrap;align=right;verticalAlign=bottom;" parent="Wej8ORWZU7e7zhtMW4-o-72" connectable="0" vertex="1">
          <mxGeometry x="1" relative="1" as="geometry" />
        </mxCell>
        <mxCell id="5L-upgqXnPn6pkHHxa_c-1" value="Nama : Muhammad Rizqy Alfy Firmansyah&lt;div&gt;NIM&amp;nbsp; &amp;nbsp; : 23051204043&lt;/div&gt;&lt;div&gt;Kelas : TIB 23&lt;/div&gt;" style="text;strokeColor=none;fillColor=none;html=1;fontSize=24;fontStyle=1;verticalAlign=middle;align=left;" vertex="1" parent="1">
          <mxGeometry x="20" y="10" width="100" height="40" as="geometry" />
        </mxCell>
      </root>
    </mxGraphModel>
  </diagram>
</mxfile>
